<svg width="263" height="301" viewBox="0 0 263 301" fill="none" xmlns="http://www.w3.org/2000/svg">
<ellipse cx="134.432" cy="237.873" rx="128.568" ry="62.8185" fill="#DBEAFE"/>
<path d="M209.135 222.164L150.742 188.334C145.795 185.474 141.784 177.789 141.784 171.178V7.86346C141.784 1.25273 145.795 -1.78669 150.742 1.07904L209.135 34.8817C214.083 37.7475 218.093 45.4329 218.093 52.0436V215.374C218.093 221.985 214.083 225.03 209.135 222.164Z" fill="#B1B4C4"/>
<path d="M210.137 225.111L214.765 222.767L210.326 215.136L210.137 225.111Z" fill="#B1B4C4"/>
<path d="M140.875 2.70733L145.134 0.465759L144.274 6.7617L140.875 2.70733Z" fill="#B1B4C4"/>
<path d="M205.411 224.031L147.018 190.223C142.071 187.363 138.06 179.678 138.06 173.067V9.73051C138.06 3.11977 142.071 0.0803529 147.018 2.94066L205.411 36.7488C210.359 39.6145 214.37 47.2945 214.37 53.9107V217.242C214.37 223.858 210.359 226.897 205.411 224.031Z" fill="#616E84"/>
<path d="M213.731 54.3286V217.643C213.731 224.265 209.725 227.299 204.778 224.438L181.876 211.179L174.759 207.07L146.396 190.641C141.448 187.775 137.443 180.095 137.443 173.479V10.1484C137.443 3.53228 141.448 0.498288 146.396 3.3586L204.794 37.1613C209.741 40.0325 213.731 47.707 213.731 54.3286Z" fill="#20232D"/>
<path d="M209.536 52.6461V211.727C209.536 215.727 206.737 217.361 203.273 215.353L185.043 204.807L183.419 203.874L182.878 203.553L178.932 201.274L167.511 194.668L162.775 191.928L160.869 190.842L147.927 183.352C144.469 181.349 141.665 176.475 141.665 172.459V13.367C141.665 9.35603 144.469 7.7332 147.927 9.73596L170.726 22.9357V23.0009C170.726 26.1217 172.891 29.9155 175.598 31.4732C178.304 33.0309 180.469 31.7663 180.469 28.6509C180.469 28.6509 180.469 28.6021 180.469 28.5804L203.273 41.791C206.737 43.7829 209.536 48.6568 209.536 52.6461Z" fill="white"/>
<path d="M176.911 29.8313C177.633 29.4131 177.632 28.0556 176.909 26.7991C176.185 25.5427 175.013 24.8631 174.291 25.2813C173.569 25.6994 173.57 27.057 174.293 28.3134C175.017 29.5698 176.189 30.2494 176.911 29.8313Z" fill="#2B303F"/>
<path opacity="0.1" d="M175.598 28.4556C175.37 28.3082 175.181 28.1088 175.046 27.8739C174.91 27.639 174.832 27.3751 174.818 27.1041C174.818 26.6102 175.165 26.4094 175.598 26.659C175.825 26.8053 176.015 27.0035 176.151 27.2374C176.288 27.4714 176.367 27.7345 176.382 28.0051C176.382 28.499 176.025 28.6998 175.598 28.4556Z" fill="white"/>
<path d="M216.118 75.8162C215.641 76.093 215.257 75.8162 215.257 75.1649V68.2014C215.266 67.8818 215.348 67.5686 215.497 67.2861C215.646 67.0036 215.859 66.7596 216.118 66.5731C216.594 66.2963 216.978 66.5731 216.978 67.2299V74.1934C216.969 74.5121 216.887 74.8244 216.738 75.1059C216.589 75.3875 216.376 75.6305 216.118 75.8162Z" fill="#757B89"/>
<path d="M216.118 87.2303C215.641 87.5017 215.257 87.2303 215.257 86.5736V79.6101C215.262 79.286 215.342 78.9675 215.492 78.6801C215.641 78.3926 215.856 78.1442 216.118 77.9547C216.594 77.6833 216.978 77.9547 216.978 78.6114V85.5749C216.974 85.8991 216.893 86.2175 216.744 86.505C216.594 86.7924 216.38 87.0408 216.118 87.2303Z" fill="#757B89"/>
<path d="M198.575 201.795L152.647 175.2C150.266 173.821 148.317 170.114 148.317 166.928V81.412C148.317 78.2206 150.255 76.7552 152.647 78.1555L198.575 104.75C200.962 106.134 202.905 109.836 202.905 113.027V198.565C202.905 201.708 200.946 203.173 198.575 201.795Z" fill="#E9EAF2"/>
<path d="M170.346 115.246C173.72 113.294 173.72 106.961 170.346 101.102C166.972 95.2426 161.503 92.0761 158.13 94.029C154.756 95.9819 154.757 102.315 158.13 108.174C161.504 114.033 166.973 117.199 170.346 115.246Z" fill="#CED0DB"/>
<path d="M195.869 121.798L178.104 111.513V107.345L195.869 117.63V121.798Z" fill="#CED0DB"/>
<path d="M191.771 126.922L178.104 119.014V114.846L191.771 122.759V126.922Z" fill="#CED0DB"/>
<path d="M195.869 145.859L155.603 122.547V118.384L195.869 141.69V145.859Z" fill="#CED0DB"/>
<path d="M186.575 147.981L155.603 130.048V125.88L186.575 143.812V147.981Z" fill="#CED0DB"/>
<path d="M195.728 160.779L155.462 137.468V133.299L195.728 156.611V160.779Z" fill="#CED0DB"/>
<path d="M186.44 162.901L155.462 144.968V140.8L186.44 158.733V162.901Z" fill="#CED0DB"/>
<path d="M195.728 175.781L155.462 152.469V148.301L195.728 171.612V175.781Z" fill="#CED0DB"/>
<path d="M195.371 190.571L155.105 167.259V163.096L195.371 186.402V190.571Z" fill="#CED0DB"/>
<path d="M186.44 177.903L155.462 159.97V155.802L186.44 173.734V177.903Z" fill="#CED0DB"/>
<g filter="url(#filter0_d_121_8459)">
<path d="M161.016 73.4607C160.826 73.3324 160.667 73.1646 160.548 72.9689C160.429 72.7731 160.354 72.5539 160.328 72.3263L157.438 38.4151L155.164 52.9663C155.11 53.3299 154.812 53.4494 154.466 53.2485L148.94 50.0463C148.734 49.9106 148.564 49.7283 148.441 49.5143C148.319 49.3003 148.249 49.0605 148.236 48.8142C148.236 48.3638 148.555 48.1792 148.945 48.4017L153.871 51.2566L156.896 31.8043C156.95 31.4353 157.27 31.3213 157.616 31.5384C157.802 31.6684 157.959 31.836 158.076 32.0304C158.194 32.2249 158.269 32.4418 158.298 32.6673L161.135 66.0792L163.841 46.0733C163.89 45.7043 164.177 45.5794 164.518 45.764C164.706 45.8839 164.868 46.0427 164.991 46.2298C165.114 46.417 165.196 46.6281 165.232 46.8495L168.48 66.3506L171.641 40.8412C171.684 40.4613 171.987 40.331 172.339 40.5318C172.527 40.6521 172.686 40.8112 172.808 40.9984C172.929 41.1856 173.009 41.3966 173.043 41.6173L176.799 74.6819L179.917 58.3993C179.982 58.0628 180.263 57.9542 180.599 58.1333C180.953 58.3701 181.199 58.7364 181.286 59.1537L184.458 75.5449L187.3 50.8713C187.343 50.4968 187.636 50.3557 187.987 50.551C188.179 50.6686 188.341 50.8267 188.465 51.0142C188.588 51.2018 188.669 51.4142 188.702 51.6366L192.193 77.6887L194.64 66.2909C194.705 65.9653 194.975 65.8567 195.295 66.025C195.472 66.1325 195.625 66.2742 195.747 66.442C195.869 66.6097 195.956 66.8 196.004 67.0019L198.364 76.7335L203.436 79.5884C203.641 79.7218 203.812 79.9019 203.936 80.114C204.059 80.3262 204.13 80.5645 204.145 80.8096C204.145 81.2655 203.842 81.4554 203.446 81.2383L197.855 78.0904C197.518 77.8659 197.277 77.5233 197.178 77.1297L195.463 70.0739L192.794 82.5572C192.724 82.8992 192.426 83.0131 192.085 82.7906C191.902 82.6673 191.747 82.5071 191.63 82.3202C191.512 82.1332 191.435 81.9237 191.403 81.7051L188.107 57.1346L185.4 80.663C185.357 81.0267 185.081 81.1678 184.74 80.9941C184.551 80.8824 184.388 80.7317 184.262 80.552C184.136 80.3723 184.05 80.1678 184.009 79.952L180.713 62.7739L177.389 80.0931C177.319 80.4459 177.01 80.5436 176.669 80.3374C176.488 80.2122 176.334 80.0514 176.217 79.8648C176.1 79.6782 176.022 79.4697 175.987 79.2519L172.377 47.4139L169.346 71.7456C169.302 72.1147 169.016 72.2503 168.669 72.0658C168.481 71.9444 168.32 71.7852 168.196 71.5984C168.072 71.4117 167.988 71.2012 167.949 70.9803L164.702 51.3L161.725 73.1459C161.665 73.5367 161.367 73.6615 161.016 73.4607Z" fill="#FF5A5A"/>
</g>
<path opacity="0.4" d="M74.5137 260.206C89.2993 260.206 101.285 253.266 101.285 244.705C101.285 236.144 89.2993 229.204 74.5137 229.204C59.7281 229.204 47.742 236.144 47.742 244.705C47.742 253.266 59.7281 260.206 74.5137 260.206Z" fill="#D6D8E5"/>
<path d="M55.439 129.771C55.1413 132.382 52.0344 143.644 52.7001 147.503C53.3659 151.362 63.9804 157.815 63.9804 157.815L65.4527 151.21L59.5744 145.457L61.1603 134.52L55.439 129.771Z" fill="#FFCEA9"/>
<path d="M63.6503 118.672C62.1347 118.015 59.3201 117.869 57.7395 120.463C56.159 123.057 54.5568 131.948 54.4107 133.489C54.4107 133.489 56.6028 136.523 59.8884 136.018L63.6503 118.672Z" fill="#EDEDED"/>
<path d="M75.7695 244.238C78.0797 244.876 80.5472 244.575 82.6383 243.402C84.2892 243.451 93.269 239.603 94.4923 242.832C95.5749 245.671 91.6723 248.292 89.5938 248.803C85.0578 249.888 81.7019 252.173 79.8778 252.559C78.5246 252.846 76.7654 253.036 75.6829 251.967C74.3892 250.686 74.4975 245.937 75.7695 244.238Z" fill="#FFC618"/>
<path d="M79.8778 251.777C81.7019 251.397 85.0578 249.128 89.5937 248.027C91.3367 247.603 94.3353 245.693 94.6385 243.413C95.039 246.024 91.5315 248.341 89.5937 248.808C85.0578 249.894 81.7019 252.179 79.8778 252.564C78.5246 252.852 76.7654 253.042 75.6829 251.972C75.4036 251.661 75.1998 251.29 75.0875 250.887C76.668 252.2 78.5246 252.065 79.8778 251.777Z" fill="#111111"/>
<path d="M61.2036 237.687C63.5128 238.33 65.9817 238.031 68.0724 236.857C69.7287 236.905 78.7032 233.057 79.9265 236.314C81.009 239.152 77.1064 241.774 75.0279 242.284C70.492 243.37 67.136 245.655 65.3173 246.04C63.9587 246.328 62.1996 246.518 61.1224 245.443C59.8233 244.13 59.937 239.38 61.2036 237.687Z" fill="#FFC618"/>
<path d="M65.3173 245.22C67.136 244.835 70.492 242.572 75.0279 241.47C76.7708 241.047 79.7695 239.131 80.0726 236.857C80.4786 239.467 76.9657 241.785 75.0279 242.252C70.492 243.337 67.136 245.622 65.3173 246.007C63.9587 246.295 62.1996 246.485 61.1224 245.41C60.8391 245.102 60.6348 244.73 60.527 244.325C62.1021 245.638 63.9587 245.508 65.3173 245.22Z" fill="#111111"/>
<path d="M61.025 213.225C61.4136 209.881 62.1075 206.58 63.0981 203.363C63.0981 203.363 62.481 194.848 62.1725 186.782C61.8207 177.626 58.6542 169.566 61.1495 162.261L89.3285 168.546C89.3285 168.546 87.6235 205.051 87.2446 209.469C87.0408 212.908 86.6214 216.331 85.9888 219.716C84.7005 226.805 82.6112 243.663 82.6112 243.663C79.6287 245.4 75.7207 244.439 75.7207 244.439C75.7207 244.439 75.9372 223.12 76.1267 218.012C76.3594 211.776 76.5489 212.254 76.5489 212.254L75.6179 196.725L75.0116 188.997C75.0116 188.997 74.2322 194.668 73.7234 199.732C73.2795 204.15 72.2186 208.145 71.017 216.362C69.9886 223.494 68.3106 237.823 68.3106 237.823C65.3336 239.56 61.274 238.121 61.274 238.121C61.274 238.121 60.2185 219.413 61.025 213.225Z" fill="#50555C"/>
<path d="M65.1387 118.824C67.3038 118.933 68.8844 119.486 69.155 118.824C69.3842 117.713 69.5469 116.589 69.6421 115.459C69.3932 114.835 69.1821 114.167 69.1821 114.167C66.4757 112.501 65.6367 109.581 65.2794 106.183C64.6786 100.37 67.8072 95.2794 73.6043 94.6715C79.055 94.1287 83.0659 97.928 84.1322 103.22C84.7114 105.82 85.8589 110.742 84.3054 115.025C83.4394 117.418 82.3243 119.318 81.2039 119.687C80.1258 119.656 79.0504 119.562 77.9833 119.405C77.9833 119.405 77.6964 121.033 77.4961 122.053C77.2958 123.074 77.377 123.638 79.4339 124.914C81.4907 126.189 76.3215 128.794 72.9385 128.539C69.5555 128.284 65.7666 126.238 64.7219 124.045C63.569 121.63 63.6664 118.753 65.1387 118.824Z" fill="#FFCEA9"/>
<path d="M68.2457 119.144C67.6503 120.631 69.1605 122.45 73.193 123.72C77.2255 124.99 77.5828 123.356 77.5828 123.356C77.5828 123.356 83.4936 126.07 85.4151 127.4C87.8346 129.098 88.9063 134.005 89.2365 142.287C89.61 151.872 89.6425 166.092 89.3285 168.546C89.3285 168.546 84.8089 173.061 79.0442 172.584C73.2796 172.106 63.5258 166.977 61.182 163.01C61.247 154.608 62.2267 153.24 60.8681 148.399C57.7611 137.316 56.1265 132.778 57.6204 125.413C58.8653 119.34 60.6083 118.585 63.0007 118.645C64.7566 118.718 66.5074 118.885 68.2457 119.144Z" fill="#F4F4F4"/>
<path d="M98.33 150.211C93.583 151.411 92.4679 148.409 91.8346 145.924C90.3245 139.905 89.5125 134.472 88.3867 131.058C87.0605 127.03 85.6803 126.385 83.7209 125.603C81.4258 124.68 79.4556 126.623 80.2188 131.747C81.1227 137.815 82.3081 142.059 84.549 149.251C85.139 151.123 86.4597 154.456 88.4462 156.062C90.8928 158.049 94.5843 157.962 100.165 156.573C102.547 155.975 105.156 154.548 109.659 152.442C110.866 151.899 111.824 151.503 114.125 150.418C116.425 149.332 118.861 147.525 120.079 145.761C121.296 143.997 121.453 143.166 121.204 142.765C120.896 142.26 120.344 142.369 119.694 143.112C118.757 144.368 117.6 145.442 116.279 146.282C116.279 146.282 117.778 144.73 118.59 143.72C119.319 142.825 119.923 141.836 120.387 140.778C120.815 139.747 119.932 138.352 119.261 139.085C118.59 139.818 118.271 140.567 117.042 142.043C116.393 142.828 115.654 143.533 114.839 144.143C115.601 143.114 116.279 142.025 116.869 140.887C117.648 139.291 117.637 138.472 117.605 137.934C117.572 137.397 116.815 136.757 116.106 137.772C115.461 138.689 115.023 140.122 113.556 141.679C112.474 142.808 111.548 143.46 111.521 143.145C111.494 142.83 112.176 142.211 112.566 140.898C112.955 139.584 112.566 138.184 111.84 138.043C111.115 137.902 111.256 137.934 110.671 139.161C110.087 140.388 109.199 141.299 108.506 143.096C107.905 144.675 107.635 145.316 106.552 146.466C105.421 147.693 102.844 149.072 98.33 150.211Z" fill="#FFCEA9"/>
<path d="M81.9671 124.778C85.139 124.311 87.3799 125.744 88.7764 130.558C90.1729 135.373 91.158 139.329 91.158 139.329C89.9026 141.143 88.0029 142.407 85.8481 142.863C82.0591 143.785 80.6897 141.967 80.6897 141.967C80.6897 141.967 79.6071 136.919 78.9793 133.484C78.3514 130.048 78.0428 125.375 81.9671 124.778Z" fill="#EDEDED"/>
<path d="M83.9481 102.476C83.9481 102.476 88.9604 94.8397 78.1077 93.282C70.2808 92.1639 65.2469 97.2061 64.6678 102.677C64.1265 107.904 67.3255 113.331 69.6421 115.486C70.7734 115.893 73.2092 116.127 76.4081 114.667C76.5361 113.243 76.5849 111.813 76.5543 110.384C76.5543 110.384 72.7382 102.335 83.9481 102.476Z" fill="#111111"/>
<path opacity="0.4" d="M167.966 271.376C175.125 271.376 180.929 268.015 180.929 263.87C180.929 259.724 175.125 256.363 167.966 256.363C160.806 256.363 155.002 259.724 155.002 263.87C155.002 268.015 160.806 271.376 167.966 271.376Z" fill="#D6D8E5"/>
<path d="M169.892 270.893C177.052 270.893 182.856 267.532 182.856 263.386C182.856 259.241 177.052 255.88 169.892 255.88C162.733 255.88 156.929 259.241 156.929 263.386C156.929 267.532 162.733 270.893 169.892 270.893Z" fill="#D9DCE8"/>
<path d="M156.929 263.267V259.5L161.048 260.884L156.929 263.267Z" fill="#D9DCE8"/>
<path d="M182.845 259.766V263.148L178.098 262.214L182.845 259.766Z" fill="#D9DCE8"/>
<path d="M169.892 267.034C177.052 267.034 182.856 263.673 182.856 259.527C182.856 255.382 177.052 252.021 169.892 252.021C162.733 252.021 156.929 255.382 156.929 259.527C156.929 263.673 162.733 267.034 169.892 267.034Z" fill="#EFF1F9"/>
<path d="M161.394 265.194L159.987 264.38L178.266 253.801L179.668 254.616L161.394 265.194Z" fill="#D3D6E2"/>
<path d="M159.987 264.38V268.233L161.265 268.993L161.443 269.08V265.194L159.987 264.38Z" fill="#C5C8D3"/>
<path opacity="0.4" d="M114.311 242.151C121.47 242.151 127.274 238.79 127.274 234.645C127.274 230.499 121.47 227.138 114.311 227.138C107.151 227.138 101.347 230.499 101.347 234.645C101.347 238.79 107.151 242.151 114.311 242.151Z" fill="#D6D8E5"/>
<path d="M116.238 241.668C123.398 241.668 129.202 238.307 129.202 234.162C129.202 230.016 123.398 226.655 116.238 226.655C109.079 226.655 103.275 230.016 103.275 234.162C103.275 238.307 109.079 241.668 116.238 241.668Z" fill="#D9DCE8"/>
<path d="M103.275 234.037V230.264L107.394 231.654L103.275 234.037Z" fill="#D9DCE8"/>
<path d="M141.979 213.449V216.83L137.232 215.891L141.979 213.449Z" fill="#D9DCE8"/>
<path d="M116.238 237.809C123.398 237.809 129.202 234.448 129.202 230.302C129.202 226.157 123.398 222.796 116.238 222.796C109.079 222.796 103.275 226.157 103.275 230.302C103.275 234.448 109.079 237.809 116.238 237.809Z" fill="#EFF1F9"/>
<path d="M107.74 235.969L106.338 235.155L124.612 224.576L126.019 225.391L107.74 235.969Z" fill="#D3D6E2"/>
<path d="M106.338 235.155V239.008L107.61 239.763L107.789 239.855V235.969L106.338 235.155Z" fill="#C5C8D3"/>
<path opacity="0.4" d="M236.389 250.29C243.548 250.29 249.352 246.929 249.352 242.784C249.352 238.638 243.548 235.277 236.389 235.277C229.229 235.277 223.425 238.638 223.425 242.784C223.425 246.929 229.229 250.29 236.389 250.29Z" fill="#D6D8E5"/>
<path d="M238.31 249.807C245.47 249.807 251.274 246.446 251.274 242.3C251.274 238.155 245.47 234.794 238.31 234.794C231.151 234.794 225.347 238.155 225.347 242.3C225.347 246.446 231.151 249.807 238.31 249.807Z" fill="#D9DCE8"/>
<path d="M225.352 242.181C225.352 242.149 225.352 238.409 225.352 238.409L229.477 239.798L225.352 242.181Z" fill="#D9DCE8"/>
<path d="M251.268 238.68V242.062L246.521 241.123L251.268 238.68Z" fill="#D9DCE8"/>
<path d="M238.31 245.948C245.47 245.948 251.274 242.587 251.274 238.441C251.274 234.296 245.47 230.935 238.31 230.935C231.151 230.935 225.347 234.296 225.347 238.441C225.347 242.587 231.151 245.948 238.31 245.948Z" fill="#EFF1F9"/>
<path d="M229.818 244.108L228.41 243.294L246.684 232.715L248.091 233.53L229.818 244.108Z" fill="#D3D6E2"/>
<path d="M228.41 243.294V247.147L229.688 247.902L229.866 247.994V244.108L228.41 243.294Z" fill="#C5C8D3"/>
<path opacity="0.4" d="M22.6435 201.019C35.1492 201.019 45.2871 195.362 45.2871 188.385C45.2871 181.407 35.1492 175.75 22.6435 175.75C10.1379 175.75 0 181.407 0 188.385C0 195.362 10.1379 201.019 22.6435 201.019Z" fill="#D6D8E5"/>
<path d="M45.2871 142.417H3.77392C3.77392 142.417 3.91571 177.823 3.80882 184.541C3.78121 184.843 3.7732 185.146 3.78483 185.449C3.78483 185.513 3.78483 185.561 3.77392 185.592H3.79137C3.95498 188.546 5.97283 191.469 9.85364 193.723C17.9578 198.431 31.1076 198.431 39.2008 193.734C43.0816 191.48 45.0907 188.557 45.2631 185.603H45.2871V142.417Z" fill="#FF5A5A"/>
<path d="M24.5305 154.245C35.994 154.245 45.2871 148.829 45.2871 142.148C45.2871 135.467 35.994 130.051 24.5305 130.051C13.0669 130.051 3.77392 135.467 3.77392 142.148C3.77392 148.829 13.0669 154.245 24.5305 154.245Z" fill="white"/>
<path d="M46.3678 144.151C46.149 144.725 45.8717 145.274 45.5403 145.791C44.878 146.813 44.0663 147.73 43.1322 148.512C42.8564 148.754 42.5652 148.988 42.2565 149.218C41.6423 149.678 41.0004 150.099 40.3344 150.48C40.1899 150.563 40.0476 150.644 39.8966 150.723C39.601 150.887 39.2946 151.046 38.9815 151.197C38.235 151.562 37.4491 151.899 36.6456 152.199C36.3457 152.313 36.0436 152.417 35.735 152.522C34.9622 152.783 34.1675 153.01 33.3531 153.211C33.0795 153.281 32.8036 153.347 32.5256 153.406C31.7288 153.584 30.9217 153.73 30.1044 153.843C29.8264 153.885 29.5505 153.924 29.2725 153.957C28.4713 154.055 27.6686 154.128 26.8644 154.176C26.5886 154.191 26.3127 154.206 26.0325 154.213C25.2269 154.248 24.4191 154.252 23.6244 154.235C23.3464 154.235 23.0705 154.219 22.7925 154.206C21.9825 154.169 21.1747 154.11 20.3713 154.02C20.0933 153.99 19.8152 153.959 19.5394 153.92C18.725 153.815 17.9172 153.679 17.1204 153.52C16.8423 153.465 16.5643 153.404 16.2907 153.343C15.4661 153.154 14.6597 152.936 13.8716 152.686C13.5936 152.599 13.3134 152.507 13.0397 152.413C12.2056 152.124 11.3956 151.801 10.6185 151.442C10.3383 151.315 10.0602 151.182 9.79098 151.044C9.42174 150.858 9.06125 150.663 8.70952 150.46C8.23666 150.187 7.79226 149.907 7.36975 149.614C7.08077 149.419 6.80274 149.216 6.53785 149.008C5.63537 148.317 4.82209 147.517 4.11662 146.627C3.81295 146.238 3.53716 145.829 3.2913 145.402C0.716825 140.917 2.5229 135.78 8.70952 132.211C17.4444 127.181 31.6105 127.181 40.3497 132.211C42.8082 133.628 44.5705 135.29 45.6476 137.063C45.9338 137.533 46.1771 138.027 46.3744 138.54C47.0834 140.343 47.0811 142.349 46.3678 144.151Z" fill="#EF990F"/>
<path d="M2.15652 140.804C2.15652 140.699 2.15652 134.89 2.15652 134.89L9.16524 137.847L2.15652 140.804Z" fill="#EF990F"/>
<path d="M46.9045 134.89L46.898 140.847L42.8853 144.03L40.4349 138.566L46.9045 134.89Z" fill="#EF990F"/>
<path d="M4.31305 138.116V146.718C4.11468 146.314 3.93452 145.888 3.77392 145.444V138.116H4.31305Z" fill="#DD8910"/>
<path d="M7.54784 140.266V148.868C7.36057 148.676 7.18038 148.475 7.00871 148.269V140.266H7.54784Z" fill="#DD8910"/>
<path d="M10.7826 143.492V151.019C10.6001 150.904 10.4189 150.782 10.2435 150.657V143.492H10.7826Z" fill="#DD8910"/>
<path d="M14.0174 144.03V152.094C13.6571 152.012 13.2939 151.925 12.9392 151.836V144.04L14.0174 144.03Z" fill="#DD8910"/>
<path d="M17.2522 145.105V152.632C16.8909 152.582 16.5296 152.526 16.174 152.47V145.105H17.2522Z" fill="#DD8910"/>
<path d="M19.9479 145.643V154.245C19.7677 154.211 19.5875 154.178 19.4087 154.135V145.643H19.9479Z" fill="#DD8910"/>
<path d="M23.1827 145.643V154.245C23.0025 154.245 22.8237 154.229 22.6435 154.215V145.643H23.1827Z" fill="#DD8910"/>
<path d="M27.4957 145.643V154.205C26.9594 154.222 26.4231 154.238 25.8783 154.245V145.65L27.4957 145.643Z" fill="#DD8910"/>
<path d="M29.6522 145.643V153.595C29.2919 153.636 28.9343 153.675 28.574 153.707V145.643H29.6522Z" fill="#DD8910"/>
<path d="M33.4262 145.105V152.458C33.2479 152.521 33.0682 152.579 32.887 152.632V145.105H33.4262Z" fill="#DD8910"/>
<path d="M36.661 143.492V151.776C36.4834 151.888 36.3046 151.991 36.1218 152.094V143.492H36.661Z" fill="#DD8910"/>
<path d="M39.8957 141.879V150.549C39.5475 150.712 39.1864 150.87 38.8175 151.019V141.879H39.8957Z" fill="#DD8910"/>
<path d="M43.1305 139.191V148.129C42.7909 148.383 42.4324 148.628 42.0523 148.868V139.191H43.1305Z" fill="#DD8910"/>
<path d="M45.8262 136.503V143.921C45.6837 144.523 45.503 145.1 45.2871 145.643V136.503H45.8262Z" fill="#DD8910"/>
<path d="M24.5305 147.256C36.8873 147.256 46.9045 141.479 46.9045 134.352C46.9045 127.226 36.8873 121.449 24.5305 121.449C12.1737 121.449 2.15652 127.226 2.15652 134.352C2.15652 141.479 12.1737 147.256 24.5305 147.256Z" fill="#FCA70D"/>
<path d="M39.4328 157.698C31.2029 162.425 17.8603 162.425 9.63045 157.698L9.24498 157.477L9.16524 157.526V174.078C9.31588 174.171 9.47095 174.263 9.63045 174.354C17.8603 179.083 31.2029 179.083 39.4328 174.354C39.5923 174.263 39.7429 174.169 39.8957 174.074V157.521L39.8138 157.471C39.6897 157.55 39.5635 157.623 39.4328 157.698Z" fill="#ECE8F9"/>
<path d="M28.0348 164.769C22.2653 165.227 16.1689 164.591 11.3218 162.847V164.544C16.1689 166.284 22.272 166.924 28.0348 166.468V164.769Z" fill="#50555C"/>
<path d="M28.0348 168.544C22.2653 169.131 16.1689 168.315 11.3218 166.073V168.255C16.1644 170.492 22.2653 171.315 28.0348 170.728V168.544Z" fill="#50555C"/>
<path d="M33.4262 163.355V169.836C33.8988 169.684 34.4915 169.491 35.0436 169.305V162.847H35.0212C34.518 163.044 33.8763 163.233 33.4262 163.355Z" fill="#50555C"/>
<path d="M36.661 164.46C34.9229 165.206 33.1164 165.765 31.2696 166.127V168.223C33.1164 167.861 34.9229 167.303 36.661 166.556V164.46Z" fill="#50555C"/>
<defs>
<filter id="filter0_d_121_8459" x="138.236" y="25.4288" width="75.9088" height="71.4765" filterUnits="userSpaceOnUse" color-interpolation-filters="sRGB">
<feFlood flood-opacity="0" result="BackgroundImageFix"/>
<feColorMatrix in="SourceAlpha" type="matrix" values="0 0 0 0 0 0 0 0 0 0 0 0 0 0 0 0 0 0 127 0" result="hardAlpha"/>
<feOffset dy="4"/>
<feGaussianBlur stdDeviation="5"/>
<feColorMatrix type="matrix" values="0 0 0 0 1 0 0 0 0 0.352941 0 0 0 0 0.352941 0 0 0 0.2 0"/>
<feBlend mode="normal" in2="BackgroundImageFix" result="effect1_dropShadow_121_8459"/>
<feBlend mode="normal" in="SourceGraphic" in2="effect1_dropShadow_121_8459" result="shape"/>
</filter>
</defs>
</svg>
