<svg width="278" height="148" viewBox="0 0 278 148" fill="none" xmlns="http://www.w3.org/2000/svg">
<path d="M270.918 55.6201L267.971 62.6071L270.06 63.3639L273.007 56.3769L270.918 55.6201Z" fill="#367CFF"/>
<path d="M86.8168 38.4871L85.1456 39.874L90.5466 45.4622L92.2178 44.0753L86.8168 38.4871Z" fill="#0CBC8B"/>
<path d="M111.578 63.4988L105.099 67.9962L106.444 69.6602L112.923 65.1628L111.578 63.4988Z" fill="#367CFF"/>
<path d="M186.519 11.8897L184.982 13.4036L190.878 18.5447L192.415 17.0308L186.519 11.8897Z" fill="#367CFF"/>
<path d="M143.649 13.5614L139.614 20.0652L141.559 21.1013L145.594 14.5975L143.649 13.5614Z" fill="#0CBC8B"/>
<path d="M202.241 69.18L200.344 70.2894L204.664 76.6336L206.561 75.5242L202.241 69.18Z" fill="#0CBC8B"/>
<path d="M114.268 100.073L112.261 101.002L115.88 107.713L117.886 106.784L114.268 100.073Z" fill="#0CBC8B"/>
<path d="M84.9071 82.4155L82.5824 89.6013L84.731 90.1982L87.0558 83.0124L84.9071 82.4155Z" fill="#367CFF"/>
<path d="M225.343 104.807L218.619 108.986L219.869 110.712L226.592 106.534L225.343 104.807Z" fill="#367CFF"/>
<path d="M226.35 -2.62257e-06L222.315 6.50369L224.26 7.53975L228.295 1.03605L226.35 -2.62257e-06Z" fill="#0CBC8B"/>
<path d="M2.08945 53.2074L0 53.9642L2.94717 60.9512L5.03661 60.1944L2.08945 53.2074Z" fill="#0CBC8B"/>
<path d="M218.988 44.5757L217.643 46.2397L224.122 50.7371L225.467 49.073L218.988 44.5757Z" fill="#0CBC8B"/>
<path d="M36.9822 13.924L31.0863 19.0651L32.6237 20.5791L38.5196 15.438L36.9822 13.924Z" fill="#367CFF"/>
<path d="M102.286 7.8018L100.341 8.83789L104.376 15.3418L106.321 14.3057L102.286 7.8018Z" fill="#367CFF"/>
<path d="M22.9578 89.4611L18.6375 95.8053L20.5347 96.9147L24.855 90.5705L22.9578 89.4611Z" fill="#0CBC8B"/>
<path d="M3.82147 106.84L2.5719 108.567L9.2993 112.746L10.5489 111.018L3.82147 106.84Z" fill="#367CFF"/>
<path d="M263.369 23.9928L261.424 25.0289L265.458 31.5326L267.403 30.4965L263.369 23.9928Z" fill="#367CFF"/>
<path d="M179.081 41.717L173.68 47.3052L175.351 48.6921L180.752 43.1039L179.081 41.717Z" fill="#367CFF"/>
<path d="M131.666 104.705L128.048 111.416L130.055 112.345L133.673 105.634L131.666 104.705Z" fill="#0CBC8B"/>
<path d="M161.029 87.0481L158.88 87.645L161.205 94.8308L163.353 94.2339L161.029 87.0481Z" fill="#367CFF"/>
<path d="M161.752 91.1488L154.106 85.7628C153.938 85.6446 153.745 85.56 153.54 85.5145C153.335 85.469 153.121 85.4637 152.914 85.4987C152.706 85.5338 152.509 85.6085 152.334 85.7181C152.159 85.8277 152.011 85.9699 151.899 86.1355C151.702 86.4472 151.637 86.8156 151.716 87.1692C151.796 87.5227 152.014 87.8364 152.329 88.0493L153.969 89.2041L147.014 87.7655C146.244 87.593 145.18 87.838 145.028 88.6514C144.948 88.9608 144.983 89.2864 145.128 89.5751C145.272 89.8637 145.519 90.0983 145.826 90.2407C145.822 90.2469 145.819 90.2536 145.817 90.2604C145.817 90.2658 145.817 90.2712 145.817 90.2765L144.63 90.0107C144.41 89.9615 144.18 89.9585 143.959 90.0018C143.737 90.0451 143.529 90.1337 143.349 90.261C143.17 90.3883 143.023 90.5513 142.919 90.7379C142.816 90.9245 142.759 91.1302 142.752 91.3398C142.749 91.6701 142.868 91.9915 143.09 92.2501C143.312 92.5088 143.623 92.689 143.971 92.7607L144.475 92.8738C144.479 92.8888 144.485 92.9032 144.493 92.9164C144.133 92.9135 143.783 93.0295 143.506 93.2437C143.229 93.4579 143.043 93.7564 142.982 94.0857C142.927 94.4479 143.021 94.8161 143.245 95.117C143.47 95.4178 143.808 95.6292 144.194 95.7088L145.45 95.9899C145.429 95.9976 145.41 96.0097 145.396 96.0252C145.381 96.0408 145.371 96.0593 145.365 96.0793C145.36 96.1035 145.363 96.1285 145.373 96.1513C145.051 96.2313 144.766 96.4071 144.562 96.6516C144.359 96.8962 144.247 97.196 144.246 97.5049C144.251 97.8294 144.374 98.1427 144.595 98.3942C144.817 98.6457 145.123 98.8206 145.465 98.8907L156.058 101.262C157.54 101.594 159.095 101.508 160.523 101.015C161.952 100.523 163.19 99.646 164.078 98.4975C164.843 97.5072 165.162 96.2794 164.966 95.0749C164.77 93.8704 164.074 92.7842 163.028 92.0472L161.752 91.1488Z" fill="#E98862"/>
<g opacity="0.2">
<path d="M152.702 91.6963C152.693 91.7293 152.671 91.7577 152.64 91.7755C152.609 91.7934 152.571 91.7992 152.535 91.7917L145.923 90.4145C145.905 90.4107 145.888 90.4037 145.873 90.3939C145.858 90.384 145.845 90.3716 145.835 90.3571C145.825 90.3427 145.819 90.3266 145.816 90.3098C145.812 90.293 145.813 90.2757 145.817 90.2591C145.821 90.2424 145.829 90.2267 145.839 90.2127C145.85 90.1988 145.863 90.1869 145.879 90.1778C145.894 90.1687 145.912 90.1625 145.93 90.1596C145.948 90.1567 145.967 90.1571 145.985 90.1609L152.597 91.5381C152.615 91.5418 152.632 91.5488 152.647 91.5587C152.662 91.5686 152.675 91.5811 152.685 91.5956C152.695 91.6101 152.701 91.6263 152.704 91.6431C152.707 91.66 152.707 91.6773 152.703 91.694L152.702 91.6963Z" fill="#0C0C0C"/>
</g>
<g opacity="0.2">
<path d="M152.128 94.4155C152.119 94.4487 152.096 94.4774 152.065 94.4952C152.033 94.5131 151.995 94.5187 151.959 94.5109L144.58 92.9751C144.562 92.9714 144.545 92.9644 144.53 92.9545C144.515 92.9446 144.502 92.9321 144.492 92.9176C144.482 92.9031 144.475 92.8869 144.472 92.8701C144.469 92.8532 144.47 92.8359 144.474 92.8192C144.483 92.7861 144.506 92.7575 144.537 92.7392C144.568 92.721 144.606 92.7144 144.642 92.721L152.021 94.2567C152.04 94.2605 152.057 94.2675 152.072 94.2773C152.087 94.2872 152.1 94.2998 152.109 94.3142C152.119 94.3287 152.126 94.3449 152.129 94.3618C152.132 94.3787 152.132 94.3959 152.128 94.4126V94.4155Z" fill="#0C0C0C"/>
</g>
<g opacity="0.2">
<path d="M151.524 97.3646C151.515 97.3975 151.493 97.426 151.461 97.4438C151.43 97.4616 151.393 97.4674 151.357 97.46L145.471 96.2343C145.434 96.2268 145.403 96.2061 145.383 96.177C145.363 96.1479 145.356 96.1126 145.364 96.0789C145.373 96.0453 145.395 96.016 145.426 95.9976C145.458 95.9791 145.496 95.973 145.532 95.9805L151.418 97.2062C151.436 97.2099 151.454 97.2169 151.469 97.2268C151.484 97.2366 151.497 97.2492 151.507 97.2637C151.516 97.2782 151.523 97.2944 151.526 97.3113C151.529 97.3282 151.529 97.3455 151.525 97.3622L151.524 97.3646Z" fill="#0C0C0C"/>
</g>
<path d="M125.451 54.1029L129.72 46.1302C129.814 45.9551 129.946 45.7999 130.108 45.6746C130.27 45.5494 130.458 45.4568 130.661 45.4027C130.864 45.3486 131.077 45.3343 131.286 45.3606C131.495 45.3869 131.696 45.4532 131.876 45.5555C132.202 45.7536 132.437 46.0568 132.535 46.4064C132.634 46.756 132.589 47.127 132.409 47.4475L131.493 49.157L137.034 45.0064C137.641 44.5347 138.712 44.3162 139.238 44.9825C139.458 45.2266 139.583 45.5328 139.592 45.851C139.6 46.1692 139.492 46.4807 139.285 46.7347C139.291 46.7389 139.297 46.7437 139.302 46.749C139.305 46.7535 139.308 46.7583 139.31 46.7633L140.247 46.0357C140.421 45.9011 140.624 45.8041 140.843 45.7517C141.063 45.6994 141.292 45.693 141.514 45.733C141.736 45.7731 141.946 45.8586 142.128 45.9833C142.31 46.1079 142.459 46.2687 142.566 46.4538C142.727 46.7484 142.774 47.0853 142.7 47.4083C142.625 47.7313 142.433 48.0208 142.155 48.2283L141.757 48.5378C141.761 48.5526 141.763 48.568 141.761 48.5833C142.083 48.4321 142.452 48.3919 142.802 48.4699C143.153 48.5478 143.462 48.7388 143.675 49.0087C143.898 49.3104 143.991 49.679 143.933 50.041C143.876 50.403 143.674 50.7317 143.367 50.9615L142.376 51.7299C142.399 51.7281 142.421 51.7312 142.442 51.7391C142.463 51.747 142.481 51.7593 142.495 51.7751C142.511 51.7948 142.521 51.8183 142.523 51.8429C142.85 51.7819 143.19 51.8222 143.489 51.9574C143.789 52.0927 144.032 52.3155 144.182 52.5915C144.333 52.8844 144.373 53.2158 144.295 53.5322C144.217 53.8486 144.027 54.1315 143.754 54.3349L135.4 60.8193C134.231 61.7265 132.797 62.2896 131.281 62.4364C129.765 62.5832 128.236 62.3071 126.89 61.6433C125.73 61.0711 124.856 60.1023 124.454 58.9426C124.052 57.783 124.154 56.5239 124.738 55.4328L125.451 54.1029Z" fill="#E98862"/>
<g opacity="0.2">
<path d="M133.821 50.8681C133.845 50.8943 133.879 50.9108 133.916 50.914C133.953 50.9171 133.989 50.9067 134.018 50.885L139.282 46.9306C139.311 46.9089 139.33 46.8774 139.334 46.8431C139.337 46.8088 139.326 46.7745 139.303 46.7478C139.28 46.721 139.246 46.7039 139.209 46.7004C139.172 46.6968 139.135 46.707 139.106 46.7287L133.841 50.6831C133.812 50.7048 133.794 50.7361 133.79 50.7701C133.786 50.8042 133.797 50.8383 133.82 50.865L133.821 50.8681Z" fill="#0C0C0C"/>
</g>
<g opacity="0.2">
<path d="M135.639 53.0681C135.663 53.0943 135.697 53.1107 135.734 53.1138C135.771 53.1169 135.807 53.1065 135.836 53.0848L141.711 48.6717C141.74 48.65 141.758 48.6187 141.762 48.5846C141.766 48.5505 141.755 48.5165 141.732 48.4898C141.708 48.4642 141.674 48.448 141.638 48.4444C141.601 48.4408 141.565 48.4502 141.535 48.4705L135.658 52.8829C135.629 52.9045 135.611 52.9358 135.607 52.9699C135.603 53.0039 135.614 53.038 135.637 53.0648L135.639 53.0681Z" fill="#0C0C0C"/>
</g>
<g opacity="0.2">
<path d="M137.594 55.4609C137.617 55.4871 137.651 55.5035 137.688 55.5067C137.725 55.5099 137.761 55.4995 137.79 55.4778L142.477 51.9575C142.506 51.9358 142.524 51.9044 142.528 51.8701C142.532 51.8358 142.521 51.8015 142.497 51.7747C142.474 51.7479 142.44 51.7309 142.403 51.7273C142.366 51.7237 142.329 51.7339 142.3 51.7556L137.612 55.2759C137.584 55.2975 137.565 55.3288 137.561 55.3629C137.558 55.3969 137.568 55.431 137.591 55.4578L137.594 55.4609Z" fill="#0C0C0C"/>
</g>
<path d="M29.641 47.2671C29.641 47.2671 29.0389 55.6384 27.0067 58.6748C21.1553 67.4184 19.4602 77.2544 25.3196 82.3936C31.1791 87.5327 68.5525 87.6039 71.384 75.7842C73.7676 65.833 68.6523 64.7629 67.4075 56.5549C66.8445 52.8405 65.2951 45.0519 65.2951 45.0519" fill="#0A0A0A"/>
<path d="M61.7112 74.0512C61.6467 74.0434 60.9308 85.0511 47.1309 84.0914C37.5774 83.428 34.1711 74.0351 33.9524 74.0351C34.9824 73.8321 36.7168 73.5372 37.1742 73.3108C38.6786 72.5619 40.5393 71.7824 41.025 69.0752C41.3054 67.5161 40.8301 59.5328 40.9762 57.9534L55.6406 60.9875C55.4356 64.3217 54.0016 72.0508 59.0281 73.4187C59.8644 73.6455 60.7654 73.8537 61.7112 74.0512Z" fill="#E98862"/>
<path opacity="0.5" d="M55.8463 70.2604C55.6166 69.5744 55.4687 68.8672 55.4052 68.1514C55.2441 66.518 55.2762 64.8731 55.5011 63.2461C52.5207 62.8733 49.713 61.7333 47.3969 59.9556C47.1246 60.8874 45.6268 64.9594 46.0416 65.845C46.8248 67.5192 50.5076 70.2604 55.8463 70.2604Z" fill="#0C0C0C"/>
<path d="M53.9501 66.8311C48.1684 67.3508 40.6878 65.2065 39.1382 58.0717L37.74 51.634C36.1903 44.4994 38.978 37.9615 46.2273 36.6095C53.4768 35.2582 60.1514 40.0304 61.701 47.1653L62.3202 50.0154C62.9147 52.7529 64.2655 65.906 53.9501 66.8311Z" fill="#E98862"/>
<path opacity="0.1" d="M50.2749 57.4816C51.2264 57.3764 51.9302 56.7669 51.8469 56.1202C51.7636 55.4735 50.9248 55.0346 49.9734 55.1398C49.0219 55.245 48.3181 55.8545 48.4014 56.5012C48.4846 57.1478 49.3234 57.5868 50.2749 57.4816Z" fill="#0C0C0C"/>
<path opacity="0.1" d="M60.3285 54.8962C60.4126 55.542 61.2525 55.9803 62.2039 55.8764C62.3684 55.8581 62.5303 55.8241 62.6871 55.7748C62.7314 55.0048 62.7339 54.2643 62.7098 53.5785C62.4456 53.5172 62.1713 53.5023 61.9011 53.5346C60.9496 53.6385 60.246 54.2479 60.3285 54.8962Z" fill="#0C0C0C"/>
<path opacity="0.5" d="M56.1245 56.8922C56.1292 56.8917 56.1339 56.8911 56.1386 56.8901C56.4324 56.8334 56.7226 56.7616 57.0079 56.6752C57.4335 56.5432 57.9893 56.3265 57.9131 55.9697C57.825 55.5633 55.6697 51.4012 55.4252 50.9285C55.4151 50.9072 55.4006 50.8879 55.3824 50.8719C55.3641 50.8559 55.3426 50.8435 55.3191 50.8354C55.2955 50.8273 55.2705 50.8236 55.2454 50.8247C55.2203 50.8257 55.1957 50.8315 55.1731 50.8415C55.1504 50.8516 55.1302 50.8658 55.1137 50.8833C55.0971 50.9007 55.0845 50.9211 55.0766 50.9432C55.0687 50.9653 55.0657 50.9887 55.0678 51.0118C55.0699 51.035 55.077 51.0576 55.0886 51.0782C56.0076 52.8507 57.4877 55.7649 57.5471 56.0386C57.5006 56.1662 56.7945 56.4154 56.0656 56.5515C56.0415 56.5551 56.0183 56.5631 55.9975 56.575C55.9766 56.587 55.9585 56.6026 55.9442 56.621C55.9298 56.6394 55.9196 56.6602 55.9139 56.6823C55.9083 56.7044 55.9074 56.7273 55.9113 56.7497C55.9152 56.7721 55.9238 56.7935 55.9367 56.8128C55.9495 56.8322 55.9664 56.8489 55.9862 56.8622C56.0061 56.8755 56.0285 56.885 56.0524 56.8903C56.0762 56.8955 56.1009 56.8963 56.1251 56.8927L56.1245 56.8922Z" fill="#0C0C0C"/>
<path d="M31.9556 53.9454L38.4547 52.7691C43.3641 50.8667 44.7569 42.9382 44.7569 42.9382C44.7569 42.9382 50.8158 48.2853 65.2963 45.0519C65.2963 45.0519 62.1507 26.32 40.769 32.0072C33.8748 33.8404 28.9912 40.3524 29.7175 48.9775C30.2265 55.0202 31.9556 53.9454 31.9556 53.9454Z" fill="#0A0A0A"/>
<path d="M40.0603 60.1614C37.8573 60.5722 35.5971 58.7213 35.1529 56.6793C34.7087 54.6374 36.251 53.1791 38.454 52.768L39.8864 53.9243L41.954 59.8077L40.0603 60.1614Z" fill="#E98862"/>
<path d="M56.9868 47.6099C57.538 47.2485 58.1826 47.0289 58.855 46.9734C59.1928 46.9434 59.5337 46.9609 59.8659 47.0254C60.2009 47.0887 60.526 47.1908 60.8336 47.3291L60.8432 47.3333C60.8773 47.3472 60.9159 47.3483 60.9508 47.3362C60.9857 47.324 61.0141 47.2998 61.03 47.2685C61.0458 47.2372 61.0479 47.2015 61.0356 47.1688C61.0234 47.1362 60.9979 47.1093 60.9646 47.0938C60.6386 46.9342 60.2923 46.8134 59.9338 46.734C59.5727 46.6526 59.2006 46.622 58.8297 46.6432C58.0786 46.6817 57.3523 46.9062 56.7266 47.2932C56.7032 47.3079 56.6832 47.3267 56.6677 47.3485C56.6522 47.3703 56.6415 47.3948 56.6363 47.4204C56.631 47.4461 56.6312 47.4725 56.6369 47.498C56.6426 47.5236 56.6537 47.5479 56.6696 47.5695C56.6855 47.5911 56.7058 47.6096 56.7293 47.6239C56.7529 47.6382 56.7793 47.6481 56.807 47.6529C56.8347 47.6578 56.8631 47.6575 56.8907 47.6521C56.9183 47.6467 56.9445 47.6364 56.9677 47.6216L56.9728 47.6185L56.9868 47.6099Z" fill="#0C0C0C"/>
<path d="M51.0498 48.3697C50.3118 48.2337 49.5479 48.2836 48.8379 48.5145C48.4869 48.6265 48.156 48.7867 47.8564 48.9897C47.5579 49.1902 47.2879 49.4247 47.0527 49.6877C47.0289 49.7139 47.017 49.7475 47.0195 49.7816C47.0219 49.8157 47.0385 49.8476 47.0658 49.8707C47.093 49.8937 47.1289 49.906 47.1657 49.9051C47.2026 49.9042 47.2377 49.8901 47.2636 49.8657L47.2711 49.8584C47.4981 49.6216 47.7562 49.412 48.0395 49.2348C48.3198 49.0576 48.6275 48.9206 48.952 48.8286C49.5961 48.6411 50.2823 48.6151 50.9408 48.7533L50.957 48.7572C51.0123 48.7696 51.0706 48.7611 51.1191 48.7337C51.1677 48.7063 51.2025 48.6621 51.2159 48.6109C51.2292 48.5597 51.2201 48.5056 51.1905 48.4606C51.1609 48.4157 51.1132 48.3834 51.058 48.371L51.0498 48.3697Z" fill="#0C0C0C"/>
<path d="M38.4592 52.6698C42.8279 51.1626 44.2777 48.3671 44.7242 46.2867C45.0131 44.8993 44.9861 43.4712 44.6448 42.094L44.5096 42.1285C44.8458 43.4878 44.8718 44.8971 44.5859 46.2662C44.1451 48.3126 42.7161 51.0634 38.4102 52.5485L38.4592 52.6698Z" fill="#0C0C0C"/>
<path d="M72.9504 75.3606L114.433 88.2096L102.253 93.2261L122.938 53.9048L139.843 61.2052L120.651 101.171C119.681 103.192 117.958 104.822 115.797 105.763C113.637 106.704 111.183 106.893 108.884 106.296L108.472 106.188L66.3618 95.2322L72.9504 75.3606Z" fill="#367CFF"/>
<path d="M46.8738 81.3396C37.3136 80.922 36.9112 73.4028 36.9112 73.4028C36.9112 73.4028 32.1743 73.6866 29.0254 74.0813C23.8701 74.7275 20.4692 76.3475 17.7625 78.8553C15.2449 81.1886 13.7121 83.7128 15.334 99.8285C16.5085 111.498 15.6821 137.164 15.6821 137.164H73.94C73.94 137.164 78.0081 100.083 78.4905 94.831C79.4108 84.8034 82.0112 82.5897 76.7426 77.4243C72.9218 73.6783 63.0579 73.4028 59.0877 73.4033C59.0229 73.4033 59.8933 81.9084 46.8738 81.3396Z" fill="#367CFF"/>
<path d="M58.0626 58.2985C56.1841 59.1836 54.0409 59.4635 51.9715 59.0939C51.8999 59.0814 51.8259 59.0881 51.7582 59.1132C51.6905 59.1383 51.632 59.1806 51.5893 59.2354C51.5466 59.2902 51.5217 59.3551 51.5173 59.4225C51.5129 59.4899 51.5294 59.5571 51.5647 59.6162C52.1816 60.6234 53.6448 62.3447 56.1552 61.6431C57.776 61.1899 58.3888 59.6448 58.6159 58.6888C58.6314 58.6226 58.6263 58.5538 58.601 58.4903C58.5758 58.4268 58.5315 58.3713 58.4734 58.3303C58.4153 58.2893 58.3458 58.2645 58.273 58.2589C58.2003 58.2533 58.1273 58.267 58.0626 58.2985Z" fill="white"/>
<path d="M58.1802 50.5569C58.6815 50.5569 59.0879 50.1803 59.0879 49.7157C59.0879 49.2512 58.6815 48.8746 58.1802 48.8746C57.6789 48.8746 57.2725 49.2512 57.2725 49.7157C57.2725 50.1803 57.6789 50.5569 58.1802 50.5569Z" fill="#0C0C0C"/>
<path d="M49.4579 51.9718C49.9592 51.9718 50.3656 51.5952 50.3656 51.1306C50.3656 50.6661 49.9592 50.2895 49.4579 50.2895C48.9566 50.2895 48.5502 50.6661 48.5502 51.1306C48.5502 51.5952 48.9566 51.9718 49.4579 51.9718Z" fill="#0C0C0C"/>
<path d="M78.3606 98.4845C78.3548 98.4849 78.3488 98.4849 78.343 98.4845C78.3061 98.4803 78.2726 98.4626 78.2498 98.4355C78.227 98.4084 78.2167 98.3739 78.2213 98.3398L79.1234 91.5633C79.1253 91.5463 79.1309 91.5298 79.1399 91.5148C79.1489 91.4998 79.161 91.4867 79.1756 91.4761C79.1902 91.4656 79.2069 91.4579 79.2248 91.4535C79.2426 91.4491 79.2613 91.4481 79.2796 91.4505C79.2979 91.4526 79.3155 91.458 79.3316 91.4664C79.3476 91.4749 79.3617 91.4861 79.373 91.4996C79.3843 91.5131 79.3927 91.5285 79.3976 91.5449C79.4025 91.5614 79.4038 91.5786 79.4016 91.5955L78.4994 98.3718C78.495 98.403 78.4784 98.4316 78.4529 98.4523C78.4274 98.473 78.3946 98.4845 78.3606 98.4845Z" fill="#0C0C0C"/>
<path d="M225.825 46.196C225.825 46.196 222.35 42.5796 222.753 35.807C223.065 30.5631 227.43 34.8039 227.43 34.8039C227.43 34.8039 227.695 31.03 230.506 31.9286C233.317 32.8272 234.106 36.9885 234.106 36.9885" fill="#0C0C0C"/>
<path d="M245.356 35.1186C245.356 35.1186 259.392 39.1929 250.333 56.2448L249.047 56.0889L246.436 55.7732" fill="#0C0C0C"/>
<path d="M225.388 74.0236C225.453 74.0158 226.166 84.9869 239.92 84.0306C249.442 83.3695 252.837 74.0083 253.055 74.0083C252.029 73.8058 250.3 73.5119 249.844 73.2864C248.344 72.5398 246.489 71.7631 246.006 69.065C245.727 67.5098 246.2 59.5543 246.055 57.9807L231.438 61.0035C231.643 64.3266 233.072 72.0302 228.062 73.3937C227.229 73.6192 226.33 73.8266 225.388 74.0236Z" fill="#E98862"/>
<path opacity="0.52" d="M231.234 70.2455C231.462 69.5618 231.61 68.8568 231.673 68.1433C231.834 66.5152 231.802 64.8758 231.578 63.2541C234.548 62.8827 237.347 61.7465 239.656 59.9748C239.927 60.9035 241.42 64.9619 241.006 65.8446C240.225 67.5132 236.554 70.2455 231.234 70.2455Z" fill="#0C0C0C"/>
<path d="M232.986 66.5302C238.742 67.1047 246.222 65.0438 247.851 57.9487L249.319 51.5467C250.946 44.4526 248.245 37.9076 241.036 36.4875C233.826 35.0674 227.118 39.7578 225.491 46.8529L224.841 49.6871C224.636 50.6639 224.503 51.6524 224.443 52.6458C224.264 55.2704 224.002 59.263 225.309 62.2379C226.543 65.0464 229.309 66.163 232.986 66.5302Z" fill="#E98862"/>
<path d="M228.414 50.1847C228.915 50.1847 229.322 49.8081 229.322 49.3436C229.322 48.879 228.915 48.5024 228.414 48.5024C227.913 48.5024 227.506 48.879 227.506 49.3436C227.506 49.8081 227.913 50.1847 228.414 50.1847Z" fill="#0C0C0C"/>
<path d="M237.036 51.0259C237.537 51.0259 237.943 50.6493 237.943 50.1847C237.943 49.7202 237.537 49.3436 237.036 49.3436C236.534 49.3436 236.128 49.7202 236.128 50.1847C236.128 50.6493 236.534 51.0259 237.036 51.0259Z" fill="#0C0C0C"/>
<path d="M246.907 60.0221C249.098 60.4537 251.372 58.6316 251.838 56.6013C252.304 54.5711 250.784 53.1019 248.594 52.6703L247.152 53.8082L245.023 59.651L246.907 60.0221Z" fill="#E98862"/>
<path d="M245.427 56.348C245.427 56.348 246.85 46.1458 243.69 44.9159C241.587 44.0968 235.646 45.9974 230.906 44.2166C228.833 43.4371 226.68 43.554 226.269 44.4591C226.106 44.8174 225.918 39.2009 230.17 35.75C233.555 33.0023 242.547 33.7109 246.32 35.5138C256.766 40.5054 248.953 53.1972 248.953 53.1972L247.712 56.5753L245.427 56.348Z" fill="#0C0C0C"/>
<g opacity="0.52">
<path d="M230.776 57.0779L230.761 57.0758C230.055 56.9384 228.887 56.6341 228.997 56.1453C229.089 55.7397 231.279 51.5929 231.529 51.1215C231.551 51.081 231.589 51.05 231.635 51.0354C231.681 51.0207 231.731 51.0237 231.775 51.0436C231.819 51.0635 231.852 51.0986 231.868 51.1414C231.884 51.1841 231.881 51.2309 231.859 51.2715C230.888 53.1076 229.419 55.9395 229.357 56.2152C229.4 56.3451 230.105 56.6001 230.836 56.7422C230.882 56.7517 230.923 56.7772 230.949 56.8134C230.975 56.8496 230.985 56.8938 230.978 56.9368C230.97 56.9798 230.945 57.0184 230.907 57.0447C230.869 57.0709 230.822 57.0828 230.776 57.0779Z" fill="#0C0C0C"/>
</g>
<path d="M230.613 46.7125C229.919 46.3878 229.143 46.2426 228.367 46.2921C227.986 46.3143 227.611 46.3895 227.254 46.5149C226.901 46.6375 226.565 46.8011 226.256 47.0017C226.205 47.0322 226.168 47.0803 226.154 47.1356C226.141 47.191 226.151 47.2492 226.183 47.2975C226.215 47.3459 226.266 47.3807 226.326 47.3942C226.385 47.4078 226.448 47.3991 226.501 47.3701L226.517 47.3615C226.801 47.1985 227.105 47.0692 227.423 46.9767C227.737 46.8838 228.064 46.8354 228.393 46.8334C229.044 46.8246 229.686 46.9754 230.254 47.2705L230.275 47.2822C230.315 47.3042 230.359 47.3186 230.404 47.3247C230.45 47.3308 230.497 47.3285 230.542 47.3178C230.587 47.3071 230.629 47.2883 230.666 47.2625C230.702 47.2367 230.734 47.2044 230.757 47.1674C230.78 47.1304 230.796 47.0894 230.802 47.0469C230.808 47.0044 230.805 46.9612 230.794 46.9197C230.782 46.8782 230.761 46.8393 230.733 46.8052C230.705 46.7712 230.67 46.7426 230.63 46.7211L230.613 46.7125Z" fill="#0C0C0C"/>
<path d="M235.803 48.0124C236.433 47.8625 237.095 47.8695 237.722 48.0329C238.04 48.1134 238.342 48.2379 238.619 48.4021C238.901 48.5674 239.16 48.7648 239.388 48.9897L239.401 49.0014C239.444 49.0402 239.502 49.0621 239.562 49.0624C239.622 49.0628 239.68 49.0415 239.724 49.0032C239.768 48.9648 239.794 48.9123 239.797 48.8566C239.8 48.8009 239.78 48.7462 239.74 48.7041C239.497 48.4369 239.218 48.1991 238.911 47.9965C238.601 47.7904 238.259 47.6286 237.897 47.5163C237.161 47.2835 236.371 47.2386 235.61 47.3864C235.565 47.3955 235.523 47.4127 235.485 47.4371C235.447 47.4614 235.415 47.4925 235.39 47.5284C235.339 47.6009 235.322 47.689 235.342 47.7733C235.362 47.8576 235.417 47.9311 235.495 47.9776C235.574 48.0242 235.669 48.0401 235.76 48.0217L235.778 48.0176L235.803 48.0124Z" fill="#0C0C0C"/>
<path d="M229.665 58.6518C231.709 59.1252 233.866 58.9537 235.793 58.1643C235.86 58.1374 235.934 58.1286 236.006 58.1389C236.078 58.1493 236.145 58.1785 236.2 58.223C236.255 58.2675 236.295 58.3256 236.315 58.3904C236.336 58.4552 236.336 58.524 236.316 58.5889C235.957 59.6988 234.948 61.6812 232.332 61.517C230.642 61.4115 229.672 60.0324 229.219 59.1479C229.188 59.0866 229.176 59.0182 229.185 58.9508C229.194 58.8835 229.224 58.82 229.271 58.7679C229.318 58.7157 229.38 58.6771 229.449 58.6565C229.519 58.636 229.594 58.6343 229.665 58.6518Z" fill="white"/>
<path d="M237.778 37.2036C238.755 35.0786 238.284 32.8572 236.726 32.2422C235.168 31.6271 233.113 32.8513 232.136 34.9763C231.159 37.1014 231.63 39.3227 233.188 39.9377C234.746 40.5528 236.801 39.3287 237.778 37.2036Z" fill="#0C0C0C"/>
<path d="M240.134 81.3396C249.694 80.922 250.097 73.4028 250.097 73.4028C250.097 73.4028 254.833 73.6866 257.983 74.0813C263.138 74.7275 266.539 76.3475 269.245 78.8553C271.763 81.1886 273.296 83.7128 271.674 99.8285C270.499 111.498 271.326 137.164 271.326 137.164H213.068C213.068 137.164 209 100.084 208.518 94.831C207.597 84.8034 204.997 82.5897 210.265 77.4243C214.086 73.6783 223.95 73.4028 227.92 73.4033C227.985 73.4033 227.115 81.9084 240.134 81.3396Z" fill="#367CFF"/>
<path d="M208.38 79.7467L193.317 109.337L163.614 88.6379L151.816 103.176L191.148 130.584C191.5 130.827 191.868 131.049 192.249 131.249C193.373 131.833 194.61 132.206 195.889 132.346C197.168 132.487 198.465 132.392 199.705 132.068C200.945 131.745 202.104 131.198 203.115 130.459C204.127 129.72 204.972 128.804 205.602 127.762L205.772 127.481L228.752 89.472L208.38 79.7467Z" fill="#367CFF"/>
<path d="M273.561 137.424H8.25747C8.1831 137.424 8.11177 137.397 8.05919 137.348C8.0066 137.299 7.97705 137.233 7.97705 137.164C7.97705 137.095 8.0066 137.029 8.05919 136.981C8.11177 136.932 8.1831 136.904 8.25747 136.904H273.561C273.636 136.904 273.707 136.932 273.76 136.981C273.812 137.029 273.842 137.095 273.842 137.164C273.842 137.233 273.812 137.299 273.76 137.348C273.707 137.397 273.636 137.424 273.561 137.424Z" fill="#292A2E"/>
<path d="M216.201 98.5238H74.1333V147.199H216.201V98.5238Z" fill="white"/>
<path d="M215.995 147.34H73.6475V98.3832H215.995V147.34ZM73.9279 147.059H215.715V98.6643H73.9279V147.059Z" fill="#0C0C0C"/>
<path d="M66.7728 112.266L75.5425 108.636C75.7352 108.557 75.9437 108.515 76.1548 108.514C76.3658 108.513 76.5748 108.553 76.7683 108.631C76.9618 108.709 77.1358 108.823 77.2789 108.967C77.4221 109.111 77.5315 109.28 77.6 109.465C77.7151 109.81 77.6878 110.183 77.5234 110.51C77.359 110.838 77.0692 111.097 76.7102 111.238L74.8297 112.017L81.9555 112.085C82.748 112.08 83.7239 112.543 83.6717 113.367C83.674 113.686 83.5598 113.995 83.3477 114.246C83.1357 114.496 82.8383 114.673 82.504 114.746C82.506 114.753 82.5071 114.76 82.5074 114.767C82.5066 114.773 82.5054 114.778 82.5037 114.783L83.7258 114.775C83.952 114.774 84.1756 114.819 84.3805 114.908C84.5853 114.997 84.7662 115.127 84.91 115.289C85.0537 115.451 85.1567 115.64 85.2115 115.843C85.2663 116.047 85.2715 116.259 85.2267 116.464C85.1487 116.787 84.9537 117.074 84.6742 117.279C84.3946 117.484 84.0476 117.594 83.6911 117.591L83.1712 117.594C83.1643 117.608 83.1548 117.621 83.1431 117.632C83.4949 117.705 83.8072 117.892 84.024 118.159C84.2409 118.426 84.3482 118.755 84.3268 119.089C84.292 119.453 84.1101 119.792 83.8175 120.038C83.5249 120.284 83.1431 120.418 82.7483 120.414L81.4567 120.423C81.4748 120.435 81.4897 120.45 81.5002 120.468C81.5108 120.486 81.5166 120.506 81.5172 120.527C81.5161 120.551 81.5073 120.575 81.492 120.595C81.7858 120.741 82.0199 120.972 82.158 121.253C82.2962 121.535 82.3309 121.85 82.2567 122.151C82.1718 122.466 81.9748 122.745 81.6975 122.943C81.4203 123.141 81.079 123.246 80.729 123.242L69.8317 123.314C68.3073 123.325 66.8145 122.913 65.5444 122.131C64.2743 121.35 63.2849 120.235 62.7031 118.93C62.2013 117.804 62.1931 116.541 62.68 115.41C63.167 114.278 64.1108 113.367 65.311 112.871L66.7728 112.266Z" fill="#E98862"/>
<g opacity="0.2">
<path d="M75.4502 114.71C75.4507 114.744 75.4657 114.777 75.4919 114.801C75.5182 114.825 75.5536 114.838 75.5904 114.838L82.3671 114.895C82.4043 114.895 82.4401 114.882 82.4666 114.858C82.4932 114.833 82.5083 114.8 82.5086 114.766C82.5089 114.731 82.4945 114.698 82.4684 114.674C82.4424 114.649 82.4068 114.635 82.3696 114.635L75.5929 114.578C75.5557 114.578 75.5201 114.592 75.4938 114.616C75.4675 114.641 75.4527 114.674 75.4527 114.708L75.4502 114.71Z" fill="#0C0C0C"/>
</g>
<g opacity="0.2">
<path d="M75.341 117.48C75.3415 117.514 75.3565 117.547 75.3828 117.571C75.409 117.595 75.4444 117.608 75.4812 117.608L83.044 117.671C83.0811 117.671 83.1168 117.658 83.1431 117.633C83.1694 117.609 83.1842 117.576 83.1842 117.541C83.1829 117.507 83.1677 117.475 83.1417 117.451C83.1157 117.427 83.0807 117.413 83.044 117.411L75.4812 117.348C75.4627 117.348 75.4443 117.351 75.4271 117.358C75.41 117.364 75.3943 117.374 75.3812 117.386C75.368 117.398 75.3575 117.412 75.3504 117.428C75.3433 117.444 75.3396 117.461 75.3396 117.478L75.341 117.48Z" fill="#0C0C0C"/>
</g>
<g opacity="0.2">
<path d="M75.204 120.477C75.2045 120.511 75.2195 120.544 75.2457 120.568C75.272 120.592 75.3073 120.605 75.3442 120.605L81.3769 120.656C81.4141 120.656 81.4499 120.643 81.4765 120.619C81.503 120.594 81.5181 120.561 81.5184 120.527C81.5187 120.492 81.5043 120.459 81.4782 120.435C81.4522 120.41 81.4167 120.396 81.3795 120.396L75.3467 120.345C75.3095 120.345 75.2739 120.359 75.2476 120.383C75.2213 120.408 75.2065 120.441 75.2065 120.475L75.204 120.477Z" fill="#0C0C0C"/>
</g>
<path d="M69.283 126.735L20.6613 136.977C19.046 137.14 17.412 136.954 15.8875 136.434C14.3629 135.913 12.9892 135.072 11.8743 133.977C10.7593 132.882 9.9334 131.562 9.46129 130.122C8.98918 128.681 8.88374 127.158 9.15324 125.674L14.7174 84.2008C15.1802 81.6522 16.7165 79.3783 18.9885 77.8794C21.2605 76.3805 24.082 75.7793 26.8324 76.2081C29.5827 76.6369 32.0366 78.0606 33.6542 80.1659C35.2718 82.2713 35.9206 84.8859 35.4578 87.4345L32.7784 117.119L66.5593 110.035L69.283 126.735Z" fill="#367CFF"/>
<path d="M25.9424 118.286C25.9072 118.285 25.8734 118.273 25.8477 118.25C25.822 118.228 25.8063 118.198 25.8037 118.165C25.8011 118.133 25.8119 118.1 25.8338 118.075C25.8557 118.049 25.8871 118.032 25.9219 118.027L32.6972 116.687C32.7155 116.684 32.7341 116.685 32.752 116.689C32.77 116.693 32.7869 116.7 32.8017 116.71C32.8166 116.72 32.8291 116.733 32.8385 116.748C32.8479 116.762 32.854 116.779 32.8565 116.796C32.862 116.83 32.8527 116.864 32.8306 116.892C32.8085 116.92 32.7755 116.938 32.7387 116.943L25.9634 118.284C25.9565 118.285 25.9494 118.286 25.9424 118.286Z" fill="#0C0C0C"/>
<path d="M22.1198 137.164C22.0827 137.166 22.046 137.155 22.018 137.132C21.99 137.109 21.9729 137.077 21.9705 137.043C21.9681 137.008 21.9805 136.974 22.0051 136.948C22.0297 136.922 22.0644 136.907 22.1016 136.904L68.9778 126.674L66.3216 110.225L32.7423 116.942C32.7206 116.945 32.6985 116.942 32.6778 116.936C32.6572 116.929 32.6384 116.918 32.6231 116.904C32.6078 116.889 32.5964 116.871 32.5899 116.852C32.5834 116.832 32.5819 116.812 32.5855 116.792L34.4691 99.8308C34.4719 99.8139 34.4784 99.7977 34.4881 99.7831C34.4978 99.7685 34.5105 99.7559 34.5256 99.746C34.5407 99.736 34.5577 99.729 34.5758 99.7253C34.5938 99.7216 34.6125 99.7212 34.6306 99.7243C34.6673 99.73 34.7 99.749 34.7216 99.7771C34.7431 99.8051 34.7518 99.84 34.7456 99.874L32.8948 116.661L66.3869 109.938C66.4049 109.934 66.4238 109.932 66.4423 109.935C66.4609 109.937 66.4787 109.942 66.4949 109.951C66.511 109.96 66.5251 109.972 66.5363 109.986C66.5475 109.999 66.5556 110.015 66.5602 110.032L69.284 126.734C69.2926 126.766 69.287 126.801 69.2686 126.83C69.2501 126.859 69.2201 126.881 69.185 126.89L22.1381 137.163C22.132 137.164 22.1259 137.164 22.1198 137.164Z" fill="#0C0C0C"/>
<path d="M220.235 120.061L211.465 116.432C211.272 116.352 211.064 116.311 210.853 116.31C210.642 116.309 210.433 116.348 210.239 116.426C210.046 116.504 209.872 116.619 209.729 116.763C209.586 116.906 209.476 117.076 209.408 117.261C209.293 117.606 209.32 117.978 209.484 118.306C209.649 118.633 209.938 118.893 210.298 119.033L212.178 119.813L205.052 119.881C204.26 119.876 203.284 120.339 203.336 121.163C203.334 121.481 203.448 121.791 203.66 122.041C203.872 122.292 204.169 122.468 204.504 122.542C204.502 122.549 204.5 122.556 204.5 122.563C204.501 122.568 204.502 122.574 204.504 122.579L203.282 122.571C203.056 122.569 202.832 122.615 202.627 122.704C202.422 122.792 202.241 122.922 202.098 123.084C201.954 123.246 201.851 123.436 201.796 123.639C201.741 123.842 201.736 124.054 201.781 124.26C201.859 124.582 202.054 124.87 202.333 125.075C202.613 125.28 202.96 125.39 203.316 125.386L203.837 125.39C203.844 125.404 203.853 125.416 203.865 125.427C203.513 125.501 203.201 125.687 202.984 125.954C202.767 126.221 202.66 126.551 202.681 126.885C202.716 127.249 202.898 127.588 203.19 127.834C203.483 128.079 203.865 128.214 204.26 128.21L205.551 128.218C205.533 128.23 205.518 128.246 205.508 128.264C205.497 128.282 205.491 128.302 205.491 128.322C205.492 128.347 205.5 128.371 205.516 128.391C205.222 128.537 204.988 128.768 204.85 129.049C204.712 129.33 204.677 129.646 204.751 129.947C204.836 130.262 205.033 130.541 205.31 130.739C205.588 130.937 205.929 131.042 206.279 131.038L217.176 131.11C218.701 131.12 220.194 130.708 221.464 129.927C222.734 129.145 223.723 128.03 224.305 126.725C224.807 125.599 224.815 124.336 224.328 123.205C223.841 122.073 222.897 121.162 221.697 120.666L220.235 120.061Z" fill="#E98862"/>
<g opacity="0.2">
<path d="M211.557 122.506C211.557 122.54 211.542 122.573 211.516 122.597C211.489 122.621 211.454 122.634 211.417 122.634L204.64 122.691C204.622 122.691 204.604 122.687 204.587 122.681C204.57 122.675 204.554 122.665 204.541 122.653C204.528 122.641 204.517 122.627 204.51 122.611C204.503 122.596 204.499 122.579 204.499 122.562C204.499 122.545 204.502 122.528 204.509 122.512C204.516 122.496 204.526 122.482 204.539 122.469C204.552 122.457 204.567 122.448 204.584 122.441C204.601 122.434 204.619 122.431 204.638 122.431L211.415 122.374C211.452 122.374 211.487 122.388 211.514 122.412C211.54 122.436 211.555 122.469 211.555 122.504L211.557 122.506Z" fill="#0C0C0C"/>
</g>
<g opacity="0.2">
<path d="M211.667 125.276C211.666 125.31 211.651 125.342 211.625 125.366C211.599 125.39 211.564 125.404 211.528 125.404L203.965 125.467C203.928 125.467 203.892 125.453 203.866 125.429C203.839 125.405 203.825 125.372 203.825 125.337C203.826 125.303 203.841 125.271 203.867 125.246C203.893 125.222 203.928 125.208 203.965 125.207L211.528 125.144C211.565 125.144 211.6 125.158 211.627 125.182C211.653 125.206 211.668 125.239 211.668 125.274L211.667 125.276Z" fill="#0C0C0C"/>
</g>
<g opacity="0.2">
<path d="M211.804 128.273C211.804 128.307 211.789 128.34 211.762 128.364C211.736 128.388 211.701 128.401 211.664 128.401L205.631 128.452C205.613 128.452 205.594 128.448 205.577 128.442C205.56 128.436 205.545 128.426 205.532 128.414C205.518 128.402 205.508 128.388 205.501 128.372C205.494 128.357 205.49 128.34 205.49 128.323C205.489 128.306 205.493 128.289 205.5 128.273C205.507 128.257 205.517 128.243 205.53 128.23C205.543 128.218 205.558 128.209 205.575 128.202C205.592 128.195 205.61 128.192 205.629 128.192L211.661 128.141C211.699 128.141 211.734 128.155 211.76 128.179C211.787 128.204 211.802 128.237 211.802 128.271L211.804 128.273Z" fill="#0C0C0C"/>
</g>
<path d="M220.529 134.531L266.346 136.977C267.962 137.14 269.596 136.954 271.12 136.434C272.645 135.913 274.018 135.072 275.133 133.977C276.248 132.882 277.074 131.562 277.546 130.122C278.018 128.681 278.124 127.158 277.854 125.674L272.291 84.1996C272.062 82.9376 271.567 81.7298 270.834 80.6452C270.101 79.5606 269.145 78.6203 268.02 77.8781C266.895 77.1359 265.624 76.6063 264.278 76.3196C262.932 76.0328 261.538 75.9945 260.176 76.2068C258.814 76.4191 257.511 76.8779 256.341 77.557C255.17 78.2361 254.155 79.1222 253.355 80.1646C252.554 81.2071 251.982 82.3856 251.673 83.6327C251.363 84.8798 251.322 86.1712 251.551 87.4332L254.23 118.937L220.73 117.829L220.529 134.531Z" fill="#367CFF"/>
<path d="M261.066 118.805C261.101 118.805 261.135 118.793 261.16 118.77C261.186 118.748 261.202 118.718 261.204 118.685C261.207 118.652 261.196 118.62 261.175 118.595C261.153 118.569 261.121 118.552 261.086 118.547L254.311 118.506C254.293 118.503 254.274 118.503 254.256 118.507C254.238 118.512 254.221 118.519 254.206 118.529C254.192 118.539 254.179 118.552 254.17 118.567C254.16 118.581 254.154 118.598 254.151 118.615C254.146 118.649 254.155 118.684 254.177 118.711C254.2 118.739 254.233 118.757 254.269 118.762L261.045 118.804C261.052 118.805 261.059 118.805 261.066 118.805Z" fill="#0C0C0C"/>
<path d="M264.889 137.164C264.926 137.166 264.962 137.155 264.99 137.132C265.018 137.109 265.035 137.077 265.038 137.043C265.04 137.008 265.028 136.974 265.003 136.948C264.978 136.922 264.944 136.907 264.906 136.904L220.834 134.47L220.966 118.021L254.265 118.762C254.287 118.765 254.309 118.762 254.329 118.756C254.35 118.749 254.369 118.738 254.384 118.724C254.399 118.709 254.411 118.691 254.417 118.672C254.424 118.652 254.425 118.632 254.422 118.612L252.538 99.8319C252.536 99.815 252.529 99.7987 252.519 99.7842C252.51 99.7696 252.497 99.757 252.482 99.7471C252.467 99.7371 252.45 99.7301 252.432 99.7264C252.414 99.7226 252.395 99.7223 252.377 99.7253C252.359 99.7281 252.341 99.7342 252.326 99.7433C252.31 99.7523 252.296 99.7641 252.286 99.778C252.275 99.7919 252.267 99.8076 252.263 99.8243C252.259 99.8409 252.259 99.8582 252.262 99.875L254.114 118.481L220.902 117.735C220.884 117.73 220.865 117.729 220.847 117.731C220.828 117.733 220.81 117.739 220.794 117.748C220.778 117.757 220.764 117.768 220.753 117.782C220.742 117.796 220.733 117.812 220.729 117.829L220.529 134.53C220.52 134.563 220.526 134.598 220.544 134.627C220.562 134.656 220.592 134.677 220.628 134.686L264.869 137.162C264.876 137.163 264.882 137.164 264.889 137.164Z" fill="#0C0C0C"/>
<path d="M100.312 126.527L98.681 122.07C98.6007 121.872 98.5173 121.637 98.4308 121.366C98.3443 121.094 98.2578 120.8 98.1713 120.485C98.091 120.8 98.0076 121.097 97.9211 121.375C97.8346 121.647 97.7512 121.885 97.6709 122.088L96.0492 126.527H100.312ZM104.714 131.587H102.786C102.57 131.587 102.394 131.534 102.258 131.429C102.122 131.318 102.02 131.182 101.952 131.022L100.951 128.288H95.4006L94.3998 131.022C94.3504 131.164 94.2546 131.293 94.1125 131.411C93.9704 131.528 93.7944 131.587 93.5843 131.587H91.6383L96.911 118.187H99.4501L104.714 131.587Z" fill="#0CBC8B"/>
<path d="M112.3 123.803H112.884C113.118 123.803 113.313 123.772 113.468 123.71C113.622 123.642 113.755 123.537 113.866 123.395L117.563 118.715C117.718 118.518 117.878 118.382 118.045 118.308C118.218 118.227 118.434 118.187 118.694 118.187H120.844L116.331 123.756C116.065 124.096 115.79 124.337 115.506 124.479C115.71 124.553 115.892 124.658 116.053 124.794C116.22 124.924 116.377 125.097 116.526 125.313L121.177 131.587H118.981C118.685 131.587 118.462 131.547 118.314 131.466C118.172 131.38 118.051 131.256 117.953 131.096L114.163 126.147C114.045 125.98 113.909 125.863 113.755 125.795C113.6 125.727 113.378 125.693 113.088 125.693H112.3V131.587H109.807V118.187H112.3V123.803Z" fill="#0CBC8B"/>
<path d="M144.048 118.187L139.888 131.587H137.636L134.708 122.431C134.627 122.209 134.553 121.937 134.485 121.616C134.448 121.77 134.411 121.915 134.374 122.051C134.337 122.187 134.297 122.314 134.254 122.431L131.297 131.587H129.036L124.885 118.187H126.97C127.186 118.187 127.365 118.24 127.507 118.345C127.656 118.444 127.755 118.579 127.804 118.752L130.084 126.768C130.133 126.966 130.179 127.182 130.223 127.417C130.272 127.645 130.321 127.886 130.371 128.14C130.42 127.88 130.473 127.636 130.528 127.408C130.59 127.179 130.655 126.966 130.723 126.768L133.355 118.752C133.404 118.61 133.5 118.481 133.642 118.363C133.79 118.246 133.969 118.187 134.179 118.187H134.911C135.128 118.187 135.304 118.24 135.44 118.345C135.576 118.45 135.678 118.586 135.745 118.752L138.368 126.768C138.498 127.151 138.615 127.593 138.72 128.093C138.8 127.605 138.89 127.163 138.989 126.768L141.268 118.752C141.305 118.598 141.398 118.465 141.546 118.354C141.701 118.243 141.883 118.187 142.093 118.187H144.048Z" fill="#0CBC8B"/>
<path d="M155.593 126.527L153.962 122.07C153.882 121.872 153.799 121.637 153.712 121.366C153.626 121.094 153.539 120.8 153.453 120.485C153.372 120.8 153.289 121.097 153.203 121.375C153.116 121.647 153.033 121.885 152.952 122.088L151.331 126.527H155.593ZM159.995 131.587H158.068C157.851 131.587 157.675 131.534 157.539 131.429C157.403 131.318 157.302 131.182 157.234 131.022L156.233 128.288H150.682L149.681 131.022C149.632 131.164 149.536 131.293 149.394 131.411C149.252 131.528 149.076 131.587 148.866 131.587H146.92L152.193 118.187H154.732L159.995 131.587Z" fill="#0CBC8B"/>
<path d="M170.102 129.641C170.565 129.641 170.954 129.585 171.27 129.474C171.585 129.363 171.835 129.215 172.02 129.029C172.212 128.844 172.348 128.628 172.428 128.381C172.514 128.133 172.558 127.871 172.558 127.593C172.558 127.302 172.511 127.043 172.419 126.814C172.326 126.58 172.181 126.382 171.983 126.221C171.785 126.055 171.529 125.928 171.214 125.841C170.905 125.755 170.531 125.712 170.093 125.712H167.581V129.641H170.102ZM167.581 120.115V123.988H169.564C170.417 123.988 171.059 123.834 171.492 123.525C171.931 123.216 172.15 122.725 172.15 122.051C172.15 121.353 171.952 120.856 171.557 120.559C171.161 120.263 170.544 120.115 169.703 120.115H167.581ZM169.703 118.187C170.581 118.187 171.331 118.271 171.955 118.437C172.579 118.604 173.089 118.842 173.484 119.151C173.886 119.46 174.179 119.834 174.365 120.272C174.55 120.711 174.643 121.205 174.643 121.755C174.643 122.07 174.596 122.373 174.504 122.663C174.411 122.947 174.266 123.216 174.068 123.469C173.877 123.716 173.629 123.942 173.327 124.146C173.03 124.35 172.675 124.522 172.261 124.665C174.102 125.078 175.023 126.073 175.023 127.648C175.023 128.217 174.914 128.742 174.698 129.224C174.482 129.706 174.167 130.123 173.753 130.475C173.339 130.821 172.829 131.093 172.224 131.29C171.619 131.488 170.927 131.587 170.148 131.587H165.089V118.187H169.703Z" fill="#0CBC8B"/>
<path d="M187.857 126.527L186.226 122.07C186.145 121.872 186.062 121.637 185.975 121.366C185.889 121.094 185.802 120.8 185.716 120.485C185.636 120.8 185.552 121.097 185.466 121.375C185.379 121.647 185.296 121.885 185.216 122.088L183.594 126.527H187.857ZM192.258 131.587H190.331C190.115 131.587 189.939 131.534 189.803 131.429C189.667 131.318 189.565 131.182 189.497 131.022L188.496 128.288H182.945L181.944 131.022C181.895 131.164 181.799 131.293 181.657 131.411C181.515 131.528 181.339 131.587 181.129 131.587H179.183L184.456 118.187H186.995L192.258 131.587Z" fill="#0CBC8B"/>
</svg>
