<svg width="288" height="301" viewBox="0 0 288 301" fill="none" xmlns="http://www.w3.org/2000/svg">
<ellipse cx="144.421" cy="237.101" rx="129.263" ry="63.0587" fill="#DBEAFE"/>
<path d="M191.129 223.127L133.27 190.565C128.373 187.808 124.396 180.41 124.396 174.04V16.7257C124.433 10.3506 128.391 7.42483 133.289 10.182L191.129 42.7442C196.07 45.5074 200.022 52.9059 200.022 59.2751V216.59C200.022 222.959 196.07 225.867 191.129 223.127Z" fill="#B1B4C4"/>
<path d="M192.136 225.963L196.725 223.705L192.328 216.355L192.136 225.963Z" fill="#B1B4C4"/>
<path d="M123.519 11.7532L127.737 9.59808L126.885 15.6602L123.519 11.7532Z" fill="#B1B4C4"/>
<path d="M187.455 224.927L129.602 192.365C124.698 189.608 120.727 182.21 120.727 175.834V18.5197C120.727 12.1565 124.698 9.22481 129.602 11.982L187.455 44.5441C192.358 47.3013 196.329 54.6999 196.329 61.069V218.39C196.329 224.759 192.365 227.673 187.455 224.927Z" fill="#616E84"/>
<path d="M195.718 61.4724V218.787C195.718 225.156 191.747 228.082 186.844 225.331L164.154 212.556L157.102 208.589L128.984 192.757C124.087 189.993 120.116 182.601 120.116 176.226V18.923C120.11 12.5478 124.087 9.62812 128.984 12.3793L186.844 44.9414C191.747 47.7046 195.718 55.0972 195.718 61.4724Z" fill="#20232D"/>
<path d="M191.543 59.8771V213.092C191.543 216.951 188.764 218.51 185.337 216.584L167.248 206.41L165.649 205.507L165.118 205.206L161.209 202.991L149.895 196.633L145.201 193.991L143.312 192.931L130.491 185.707C127.064 183.775 124.285 179.085 124.285 175.214V22.0233C124.285 18.1585 127.064 16.6053 130.491 18.5257L153.082 31.2399V31.3001C153.173 32.9348 153.657 34.5257 154.496 35.9439C155.335 37.362 156.505 38.5677 157.911 39.4633C160.585 40.9562 162.753 39.7462 162.753 36.7422C162.753 36.7422 162.753 36.6941 162.753 36.676L185.349 49.3902C188.764 51.3166 191.543 56.0122 191.543 59.8771Z" fill="white"/>
<path d="M159.217 37.8803C159.932 37.478 159.931 36.1715 159.215 34.9622C158.499 33.7529 157.338 33.0987 156.624 33.5009C155.909 33.9032 155.91 35.2097 156.626 36.419C157.342 37.6283 158.503 38.2826 159.217 37.8803Z" fill="#2B303F"/>
<path opacity="0.1" d="M157.917 36.5556C157.696 36.4109 157.513 36.218 157.383 35.9923C157.252 35.7666 157.177 35.5142 157.164 35.2553C157.164 34.7797 157.509 34.5811 157.936 34.8219C158.158 34.9653 158.344 35.1576 158.477 35.3834C158.61 35.6092 158.687 35.8622 158.701 36.1222C158.683 36.5978 158.337 36.7904 157.917 36.5556Z" fill="white"/>
<path d="M198.065 82.1691C197.589 82.44 197.206 82.1691 197.206 81.5671V74.8368C197.211 74.5238 197.291 74.2163 197.44 73.9392C197.589 73.662 197.803 73.423 198.065 73.2415C198.534 72.9766 198.917 73.2415 198.917 73.8435V80.5498C198.917 80.8663 198.84 81.1782 198.692 81.4598C198.543 81.7414 198.328 81.9846 198.065 82.1691Z" fill="#757B89"/>
<path d="M198.065 93.1617C197.589 93.4266 197.206 93.1617 197.206 92.5296V85.8233C197.211 85.5112 197.291 85.2046 197.44 84.9284C197.589 84.6522 197.803 84.4143 198.065 84.234C198.534 83.9692 198.917 84.234 198.917 84.836V91.5483C198.916 91.8638 198.838 92.1746 198.69 92.4551C198.542 92.7356 198.328 92.9777 198.065 93.1617Z" fill="#757B89"/>
<path d="M140.026 35.2071C134.981 32.3657 130.874 34.6774 130.874 40.3603C130.89 41.9424 131.159 43.5124 131.671 45.0137C133.962 51.9427 138.353 60.3647 139.643 62.7848C139.73 62.9543 139.863 63.0978 140.026 63.2001C140.084 63.2382 140.151 63.2585 140.221 63.2585C140.29 63.2585 140.358 63.2382 140.415 63.2001C141.706 62.2369 146.097 58.7514 148.388 54.4049C148.948 53.2425 149.221 51.9683 149.185 50.6846C149.185 44.9836 145.078 38.0426 140.026 35.2071ZM140.026 50.8591C138.648 49.9805 137.499 48.7991 136.673 47.4097C135.848 46.0203 135.367 44.4616 135.271 42.8586C135.271 39.9088 137.408 38.7048 140.026 40.1797C141.412 41.0549 142.568 42.2356 143.399 43.6265C144.23 45.0173 144.715 46.5793 144.812 48.1863C144.812 51.1421 142.651 52.3401 140.026 50.8652V50.8591Z" fill="#DADCE5"/>
<path d="M180.384 149.455L135.302 124.08C132.832 122.708 130.88 119.018 130.88 115.845V85.3237C130.88 82.1511 132.856 80.6943 135.302 82.0669L180.384 107.447C182.854 108.82 184.806 112.504 184.806 115.683V146.198C184.806 149.37 182.829 150.833 180.384 149.455Z" fill="#E9EAF2"/>
<path d="M182.595 65.0302L158.51 51.4732C157.275 50.7869 156.299 48.9448 156.299 47.3555V47.2291C156.299 45.6458 157.287 44.9174 158.51 45.6037L182.595 59.1607C183.83 59.847 184.806 61.6891 184.806 63.2784V63.4048C184.806 64.9881 183.818 65.7345 182.595 65.0302Z" fill="#E9EAF2"/>
<path d="M182.595 76.3238L158.51 62.7607C157.275 62.0744 156.299 60.2323 156.299 58.649V58.5106C156.299 56.9213 157.287 56.1929 158.51 56.8792L182.595 70.4422C183.83 71.1285 184.806 72.9706 184.806 74.5539V74.6803C184.806 76.2816 183.818 77.01 182.595 76.3238Z" fill="#E9EAF2"/>
<path d="M182.595 88.2614L158.51 74.7043C157.275 74.018 156.299 72.1699 156.299 70.5866V70.4602C156.299 68.8709 157.287 68.1425 158.51 68.8288L182.595 82.3919C183.83 83.0781 184.806 84.9203 184.806 86.5095V86.636C184.806 88.2192 183.818 88.9476 182.595 88.2614Z" fill="#E9EAF2"/>
<path d="M182.595 100.199L133.079 72.3565C131.844 71.6703 130.868 69.8281 130.868 68.2449V68.1185C130.868 66.5292 131.856 65.8008 133.079 66.487L182.589 94.3536C183.824 95.0399 184.799 96.882 184.799 98.4713V98.5977C184.806 100.157 183.818 100.885 182.595 100.199Z" fill="#E9EAF2"/>
<path d="M182.595 163.981L133.079 136.114C131.844 135.428 130.868 133.586 130.868 131.997V131.87C130.868 130.287 131.856 129.559 133.079 130.245L182.589 158.111C183.824 158.798 184.799 160.64 184.799 162.229V162.35C184.806 163.939 183.818 164.667 182.595 163.981Z" fill="#E9EAF2"/>
<path d="M182.595 176.864L133.079 148.997C131.844 148.311 130.868 146.469 130.868 144.879V144.753C130.868 143.17 131.856 142.435 133.079 143.128L182.589 170.988C183.824 171.681 184.799 173.523 184.799 175.106V175.232C184.806 176.822 183.818 177.55 182.595 176.864Z" fill="#E9EAF2"/>
<path d="M182.595 189.747L133.079 161.88C131.844 161.188 130.868 159.346 130.868 157.762V157.636C130.868 156.047 131.856 155.318 133.079 156.004L182.589 183.871C183.824 184.557 184.799 186.399 184.799 187.989V188.115C184.806 189.698 183.818 190.433 182.595 189.747Z" fill="#E9EAF2"/>
<path d="M160.974 190.457L133.634 175.07C132.399 174.384 131.424 172.541 131.424 170.952V170.826C131.424 169.242 132.418 168.508 133.634 169.2L160.974 184.581C162.209 185.268 163.185 187.116 163.185 188.699V188.825C163.185 190.409 162.191 191.143 160.974 190.457Z" fill="#E9EAF2"/>
<path d="M184.435 257.062L155.959 241.037L184.435 225.012L212.911 241.037L184.435 257.062Z" fill="#EFDA86"/>
<path d="M210.984 273.798L184.435 288.739V258.856L210.984 243.915V273.798Z" fill="#D1B66B"/>
<path d="M184.435 288.739L157.886 273.798V243.915L184.435 258.856V288.739Z" fill="#E2C979"/>
<path opacity="0.1" d="M157.886 243.915V251.734L184.435 266.502V258.886L157.886 243.915Z" fill="black"/>
<path opacity="0.1" d="M210.984 243.915V252.288L184.435 266.502V258.886L210.984 243.915Z" fill="black"/>
<path d="M155.959 241.037V249.326L184.435 265.135V257.062L155.959 241.037Z" fill="#E2C979"/>
<path d="M184.435 265.135L212.911 249.977V241.037L184.435 257.062V265.135Z" fill="#D1B66B"/>
<path opacity="0.05" d="M184.306 249.579L170.515 241.639L185.448 233.235L199.238 241.175L184.306 249.579Z" fill="black"/>
<path d="M186.097 231.989L171.158 223.585L186.097 215.175L201.029 223.585L186.097 231.989Z" fill="#EFDA86"/>
<path d="M200.016 240.766L186.096 248.598V232.928L200.016 225.09V240.766Z" fill="#D1B66B"/>
<path d="M186.096 248.598L172.17 240.766V225.09L186.096 232.928V248.598Z" fill="#E2C979"/>
<path opacity="0.1" d="M172.17 225.09V229.19L186.096 236.937V232.94L172.17 225.09Z" fill="black"/>
<path opacity="0.1" d="M200.016 225.09V229.485L186.096 236.937V232.94L200.016 225.09Z" fill="black"/>
<path d="M171.158 223.585V227.931L186.097 236.221V231.989L171.158 223.585Z" fill="#E2C979"/>
<path d="M186.096 236.221L201.029 228.269V223.585L186.096 231.989V236.221Z" fill="#D1B66B"/>
<path opacity="0.4" d="M216.95 297.33L196.817 286.048L212.083 277.452L232.21 288.739L216.95 297.33Z" fill="#D6D8E5"/>
<path d="M219.29 278.981L198.207 267.098L213.473 258.507L234.556 270.39L219.29 278.981Z" fill="#EFDA86"/>
<path d="M233.525 287.951L219.291 295.963V279.938L233.525 271.932V287.951Z" fill="#D1B66B"/>
<path d="M219.29 295.963L199.238 284.658V268.639L219.29 279.938V295.963Z" fill="#E2C979"/>
<path opacity="0.1" d="M199.238 268.639V272.835L219.29 284.038V279.956L199.238 268.639Z" fill="black"/>
<path opacity="0.1" d="M233.525 271.932V276.423L219.291 284.038V279.956L233.525 271.932Z" fill="black"/>
<path d="M198.207 267.098V271.54L219.29 283.309V278.981L198.207 267.098Z" fill="#E2C979"/>
<path d="M219.291 283.309L234.557 275.182V270.39L219.291 278.981V283.309Z" fill="#D1B66B"/>
<path d="M58.3105 129.619C59.3542 131.943 62.2814 142.863 64.764 145.728C67.2466 148.594 79.5855 148.853 79.5855 148.853L77.5722 142.634L69.6675 140.672L65.5977 130.781L58.3105 129.619Z" fill="#FFCEA9"/>
<path d="M74.5587 139.124C69.8529 140.28 68.7474 137.385 68.1237 134.989C66.6292 129.191 65.6905 141.49 67.6605 143.037C70.0875 144.952 70.8718 146.595 76.4052 145.253C78.7643 144.651 81.3457 143.302 85.823 141.274C87.0211 140.732 87.9536 140.365 90.2509 139.323C92.5483 138.282 94.9444 136.536 96.1486 134.832C97.3529 133.128 97.5196 132.334 97.2726 131.943C96.9638 131.455 96.4142 131.563 95.7719 132.28C94.8405 133.488 93.6942 134.524 92.3877 135.338C92.3877 135.338 93.8698 133.839 94.6788 132.864C95.4 132.001 95.9983 131.047 96.4574 130.028C96.8835 129.035 96.0066 127.692 95.3396 128.397C94.6727 129.101 94.3577 129.823 93.1411 131.25C92.4995 132.007 91.7677 132.686 90.9611 133.273C91.7152 132.277 92.3864 131.224 92.9682 130.124C93.4864 129.263 93.7413 128.275 93.7031 127.277C93.666 126.753 92.9188 126.139 92.2086 127.121C91.591 128.005 91.1649 129.39 89.6828 130.889C88.6082 131.979 87.6942 132.599 87.6695 132.298C87.6448 131.997 88.318 131.401 88.7008 130.137C89.0837 128.872 88.7008 127.53 87.9845 127.385C87.2681 127.241 87.404 127.277 86.8235 128.463C86.243 129.649 85.366 130.522 84.6867 132.25C84.3227 133.47 83.6593 134.586 82.7537 135.5C81.5927 136.698 79.036 138.023 74.5587 139.124Z" fill="#FFCEA9"/>
<path opacity="0.4" d="M80.2525 253.661C94.9015 253.661 106.777 246.977 106.777 238.731C106.777 230.486 94.9015 223.802 80.2525 223.802C65.6035 223.802 53.7282 230.486 53.7282 238.731C53.7282 246.977 65.6035 253.661 80.2525 253.661Z" fill="#D6D8E5"/>
<path d="M67.6604 115.773C66.6378 115.31 65.4762 115.229 64.3966 115.546C63.3171 115.864 62.395 116.557 61.8059 117.495C60.2558 119.999 58.644 128.571 58.502 130.034C58.502 130.034 60.6696 132.96 63.9303 132.472L67.6604 115.773Z" fill="#EDEDED"/>
<path d="M79.6782 236.823C81.9637 237.431 84.4025 237.141 86.4714 236.016C88.108 236.064 97.0132 232.35 98.2051 235.468C99.2673 238.202 95.4075 240.73 93.3511 241.218C88.849 242.283 85.5266 244.468 83.7171 244.83C82.3708 245.107 80.6293 245.293 79.5547 244.258C78.3073 243.03 78.4184 238.448 79.6782 236.823Z" fill="#2B2A30"/>
<path d="M83.754 244.083C85.5635 243.71 88.8859 241.525 93.388 240.471C95.111 240.068 98.0876 238.226 98.3902 236.028C98.7855 238.545 95.3024 240.778 93.388 241.23C88.8859 242.295 85.5635 244.48 83.754 244.842C82.4077 245.119 80.6662 245.305 79.5916 244.27C79.3137 243.971 79.1126 243.612 79.0049 243.222C80.5859 244.486 82.4386 244.36 83.754 244.083Z" fill="#BF4B4B"/>
<path d="M65.2334 230.496C67.5177 231.11 69.9581 230.822 72.0266 229.695C73.6693 229.743 82.5683 226.029 83.7602 229.148C84.8163 231.881 80.9627 234.409 78.9 234.897C74.4042 235.962 71.0755 238.147 69.2722 238.509C67.9259 238.786 66.1844 238.972 65.1099 237.937C63.8686 236.703 63.9797 232.127 65.2334 230.496Z" fill="#2B2A30"/>
<path d="M69.3154 237.762C71.1187 237.389 74.4473 235.204 78.9432 234.15C80.6724 233.747 83.6428 231.905 83.9454 229.707C84.3469 232.224 80.8576 234.457 78.9432 234.909C74.4473 235.974 71.1187 238.159 69.3154 238.521C67.9691 238.798 66.2276 238.984 65.153 237.949C64.8662 237.651 64.6547 237.293 64.5355 236.901C66.1288 238.165 67.9691 238.039 69.3154 237.762Z" fill="#BF4B4B"/>
<path d="M65.0604 206.916C65.4436 203.692 66.132 200.51 67.1169 197.41C67.1169 197.41 66.4993 189.205 66.1967 181.427C65.8447 172.602 62.7075 164.836 65.1839 157.792L93.1225 163.861C93.1225 163.861 91.4303 199.047 91.0598 203.31C90.8574 206.624 90.4449 209.923 89.8247 213.188C88.5463 220.021 86.4775 236.269 86.4775 236.269C83.5194 237.943 79.6411 237.016 79.6411 237.016C79.6411 237.016 79.8572 216.469 80.0487 211.545C80.2772 205.525 80.4686 205.995 80.4686 205.995L79.5423 191.023L78.9247 183.576C78.9247 183.576 78.1527 189.042 77.6525 193.924C77.2141 198.181 76.158 202.027 74.9785 209.956C73.9595 216.831 72.2983 230.64 72.2983 230.64C69.3463 232.314 65.3322 230.923 65.3322 230.923C65.3322 230.923 64.2576 212.881 65.0604 206.916Z" fill="#FF5A5A"/>
<path d="M69.1426 115.917C71.267 116.02 72.8479 116.555 73.1197 115.917C73.3461 114.848 73.507 113.766 73.6014 112.679C73.3543 112.077 73.1444 111.432 73.1444 111.432C70.4765 109.825 69.6304 107.014 69.2784 103.733C68.6609 98.1282 71.7857 93.2279 77.5352 92.638C82.9389 92.0901 86.9098 95.7924 87.972 100.873C88.5464 103.384 89.6827 108.127 88.1449 112.257C87.2865 114.563 86.1749 116.393 85.0571 116.754C83.9861 116.725 82.9178 116.632 81.8582 116.477C81.8582 116.477 81.5679 118.03 81.3703 119.03C81.1727 120.029 81.2529 120.559 83.2909 121.781C85.3289 123.003 80.2031 125.525 76.8621 125.278C73.5211 125.032 69.7416 123.057 68.7103 120.95C67.5801 118.626 67.6789 115.851 69.1426 115.917Z" fill="#FFCEA9"/>
<path d="M72.2179 116.23C71.6312 117.663 73.1257 119.415 77.1213 120.637C81.1169 121.859 81.4751 120.288 81.4751 120.288C81.4751 120.288 87.3358 122.888 89.2441 124.189C91.6464 125.82 92.7086 130.552 93.0297 138.534C93.4064 147.775 93.4373 161.483 93.1224 163.849C93.1224 163.849 88.6389 168.201 82.9017 167.743C77.1646 167.286 67.5182 162.325 65.1777 158.515C65.2394 150.412 66.209 149.094 64.8627 144.428C61.7749 133.743 60.1631 129.378 61.6576 122.268C62.8927 116.417 64.6219 115.689 66.9933 115.749C68.7425 115.817 70.4866 115.978 72.2179 116.23Z" fill="#F0F3F7"/>
<path d="M102.046 146.174C97.3404 147.33 96.2349 144.44 95.6174 142.044C94.1167 136.241 93.3077 131.003 92.1961 127.71C90.8807 123.828 89.5035 123.208 87.5644 122.449C85.2917 121.564 83.3402 123.436 84.0936 128.379C84.9891 134.224 86.1625 138.33 88.4166 145.235C88.9971 147.041 90.3125 150.249 92.2825 151.803C94.7095 153.717 98.3655 153.609 103.899 152.29C106.264 151.688 110.189 149.866 114.667 147.831C115.865 147.29 116.797 146.928 119.095 145.881C121.392 144.833 123.788 143.094 124.998 141.396C126.209 139.698 126.363 138.892 126.116 138.506C125.807 138.019 125.258 138.127 124.616 138.844C123.684 140.05 122.537 141.083 121.231 141.896C121.231 141.896 122.713 140.397 123.522 139.427C124.245 138.565 124.843 137.611 125.301 136.592C125.727 135.599 124.85 134.25 124.183 134.955C123.516 135.659 123.201 136.387 121.985 137.808C121.342 138.565 120.61 139.246 119.805 139.837C120.558 138.839 121.229 137.784 121.812 136.682C122.331 135.821 122.586 134.833 122.547 133.835C122.51 133.317 121.762 132.703 121.058 133.684C120.441 134.563 120.009 135.948 118.526 137.447C117.452 138.537 116.538 139.163 116.513 138.862C116.488 138.561 117.162 137.959 117.544 136.694C117.927 135.43 117.544 134.088 116.828 133.943C116.112 133.799 116.248 133.835 115.673 135.021C115.099 136.207 114.21 137.08 113.53 138.813C113.164 140.039 112.494 141.157 111.579 142.07C110.43 143.268 106.524 145.078 102.046 146.174Z" fill="#FFCEA9"/>
<path d="M85.8228 121.66C88.9662 121.209 91.1894 122.587 92.5789 127.229C93.9685 131.87 94.9319 135.657 94.9319 135.657C93.6898 137.408 91.8071 138.63 89.6702 139.07C85.9093 139.955 84.5568 138.203 84.5568 138.203C84.5568 138.203 83.5131 133.339 82.8647 130.028C82.2163 126.717 81.9322 122.22 85.8228 121.66Z" fill="#EDEDED"/>
<path d="M87.7928 100.157C87.7928 100.157 92.7333 92.8005 81.9939 91.3015C74.2312 90.2179 69.2475 95.0761 68.6731 100.332C68.1173 105.37 71.3039 110.602 73.6136 112.679C74.7376 113.07 77.1523 113.281 80.3203 111.89C80.4502 110.517 80.4996 109.138 80.4686 107.76C80.4686 107.76 76.6767 100.049 87.7928 100.157Z" fill="#2B2A30"/>
<path d="M167.248 206.41L165.649 205.507L165.118 205.206C165.615 205.101 166.08 204.884 166.477 204.574C166.643 204.556 166.971 205.399 167.248 206.41Z" fill="#38226D"/>
<path d="M166.588 205.061C166.299 205.254 165.983 205.404 165.649 205.507L161.209 202.991C160.295 198.831 158.238 189.428 157.139 184.551C155.706 178.188 155.459 174.516 154.718 170.573C153.823 165.799 151.884 143.519 151.884 143.519L151.118 143.561L149.055 168.707C149.687 170.563 150.122 172.477 150.352 174.42C150.797 177.64 150.179 191.011 149.895 196.627L145.202 193.979L143.312 192.919C141.799 184.654 139.254 170.38 139.254 167.473C139.254 164.727 139.742 128.499 139.742 128.499L166.575 135.205C166.489 138.047 165.575 150.382 165.173 156.92C164.772 163.457 164.673 171.458 164.673 171.458C164.673 171.458 165.828 176.214 166.575 181.812C167.323 187.411 166.588 205.061 166.588 205.061Z" fill="#37B9C5"/>
<path d="M159.634 80.2729C159.634 80.2729 159.307 86.4675 159.449 87.0153C159.591 87.5631 162.363 89.3811 163.154 90.0253C163.944 90.6694 158.757 95.6781 156.231 96.8098C153.705 97.9416 145.683 94.9617 145.541 91.1209C145.399 87.2802 146.912 84.0655 148.141 83.8969C149.37 83.7284 159.634 80.2729 159.634 80.2729Z" fill="#FFCEA9"/>
<path d="M142.194 91.7651C141.823 89.038 143.664 86.4434 141.873 84.2641C135.598 90.2841 136.401 106.129 134.975 116.278C130.312 121.028 120.95 125.706 118.301 126.862C117.819 127.078 117.399 127.307 117.498 127.807C117.874 129.787 118.461 130.54 119.678 132.454C125.853 129.848 130.343 128.355 138.081 121.185C138.814 120.409 139.472 119.569 140.045 118.674C142.274 112.203 142.83 96.4908 142.194 91.7651Z" fill="#FFCEA9"/>
<path d="M160.313 88.0868C160.313 88.0868 155.7 94.7871 149.259 95.4132C147.233 93.4687 147.048 86.5277 149.876 84.3123C149.876 84.3123 147.295 82.2775 145.553 82.6749C143.657 83.7965 142.245 85.5537 141.583 87.6173C139.925 92.221 139.136 97.0792 139.254 101.957C139.365 108.531 139.254 128.62 139.254 128.62C139.254 128.62 140.162 132.87 145.98 136.03C151.797 139.191 156.126 139.498 160.072 138.601C163.327 137.86 166.019 136.74 167.143 134.435C166.853 129.83 164.741 117.802 165.532 112.01C166.322 106.219 167.576 101.891 167.897 97.2071C168.218 92.5236 167.279 92.6139 164.852 90.9463C163.411 89.8886 161.894 88.933 160.313 88.0868Z" fill="#D1D5DB"/>
<path d="M145.214 71.0321C145.973 66.2161 149.537 62.6041 154.619 62.8509C156.669 62.9484 158.635 63.6717 160.24 64.9185C161.845 66.1654 163.006 67.8725 163.561 69.7984C164.115 71.7244 164.035 73.7715 163.33 75.6502C162.625 77.5289 161.332 79.1439 159.634 80.2668C159.454 80.9963 159.189 81.7033 158.843 82.3738C157.046 84.4266 151.599 85.6908 150.037 85.4741C148.03 85.1912 146.949 84.3785 145.986 82.2354C144.269 78.4608 144.812 73.41 145.214 71.0321Z" fill="#FFCEA9"/>
<path d="M159.634 80.2668L159.164 76.0528C159.164 76.0528 162.685 67.1794 154.372 68.883C148.888 70.0088 147.511 70.4964 145.837 66.9085C144.164 63.3205 150.055 60.0938 157.046 60.9908C159.453 61.2377 161.677 62.3565 163.278 64.1258C164.88 65.895 165.741 68.1857 165.692 70.5445C165.482 73.2054 164.76 78.5451 159.634 80.2668Z" fill="#50555C"/>
<path d="M136.228 117.753L116.75 106.791L136.228 95.8285L155.706 106.791L136.228 117.753Z" fill="#EFDA86"/>
<path opacity="0.4" d="M134.622 112.691C139.227 112.691 142.959 110.669 142.959 108.176C142.959 105.682 139.227 103.661 134.622 103.661C130.018 103.661 126.285 105.682 126.285 108.176C126.285 110.669 130.018 112.691 134.622 112.691Z" fill="#D6D8E5"/>
<path d="M135.857 112.691C140.462 112.691 144.195 110.534 144.195 107.875C144.195 105.215 140.462 103.059 135.857 103.059C131.253 103.059 127.52 105.215 127.52 107.875C127.52 110.534 131.253 112.691 135.857 112.691Z" fill="#D9DCE8"/>
<path d="M127.52 107.875C127.52 107.854 127.52 105.467 127.52 105.467L129.991 106.347L127.52 107.875Z" fill="#D9DCE8"/>
<path d="M144.194 105.467V107.875L141.107 107.208L144.194 105.467Z" fill="#D9DCE8"/>
<path d="M135.857 110.283C140.462 110.283 144.195 108.126 144.195 105.467C144.195 102.807 140.462 100.651 135.857 100.651C131.253 100.651 127.52 102.807 127.52 105.467C127.52 108.126 131.253 110.283 135.857 110.283Z" fill="#EFF1F9"/>
<path d="M130.298 109.079L129.373 108.564L141.417 101.855L142.342 102.369L130.298 109.079Z" fill="#D3D6E2"/>
<path d="M129.373 108.477V110.942L129.915 111.428L129.991 111.487V108.997L129.373 108.477Z" fill="#C5C8D3"/>
<path d="M154.391 129.203L136.228 139.425V118.981L154.391 108.759V129.203Z" fill="#D1B66B"/>
<path d="M136.228 139.425L118.066 129.203V108.759L136.228 118.981V139.425Z" fill="#E2C979"/>
<path opacity="0.1" d="M118.066 108.759V114.105L136.228 124.213V118.999L118.066 108.759Z" fill="black"/>
<path opacity="0.1" d="M154.391 108.759V114.491L136.228 124.213V118.999L154.391 108.759Z" fill="black"/>
<path d="M116.75 106.791V112.462L136.228 123.274V117.753L116.75 106.791Z" fill="#E2C979"/>
<path d="M136.228 123.274L155.706 112.907V106.791L136.228 117.753V123.274Z" fill="#D1B66B"/>
<path d="M169.336 94.444C166.921 93.7697 168.762 94.3296 166.921 93.7697C160.647 99.7897 161.431 110.024 160.005 120.204C156.546 125.784 143.689 133.351 143.689 133.351C143.528 134.429 143.917 134.754 145.307 136.963C151.482 134.357 156.688 132.111 164.451 124.923C164.754 124.64 165.204 124.568 165.334 124.177C167.52 117.699 169.972 99.1636 169.336 94.444Z" fill="#FFCEA9"/>
<path d="M146.925 133.574C146.616 132.514 145.825 132.773 144.942 133.044C143.978 133.421 142.92 133.509 141.904 133.297C141.064 133.044 140.452 132.334 139.736 131.864C139.32 131.626 138.848 131.496 138.365 131.485C138.408 131.756 138.834 133.339 138.834 133.339C138.834 133.339 134.345 133.381 133.894 133.291C133.739 133.26 133.579 133.278 133.435 133.341C133.291 133.404 133.171 133.509 133.092 133.642C133.013 133.775 132.979 133.929 132.994 134.082C133.009 134.235 133.074 134.379 133.178 134.495C133.079 134.495 132.974 134.495 132.875 134.453C131.955 134.254 131.566 135.657 132.486 135.831C132.733 135.886 132.986 135.91 133.239 135.94C132.622 136.169 132.486 137.144 133.239 137.276L133.474 137.312C133.577 137.354 133.69 137.371 133.801 137.36H133.943C133.923 137.465 133.925 137.573 133.948 137.677C133.972 137.781 134.016 137.879 134.08 137.965C134.143 138.052 134.224 138.125 134.317 138.181C134.411 138.236 134.515 138.272 134.623 138.288C136.815 138.565 140.045 139.419 142.033 137.655C143.41 137.526 144.754 137.172 146.011 136.608C147.283 136.042 147.283 134.844 146.925 133.574Z" fill="#FFCEA9"/>
<path d="M124.495 128.878C124.39 128.878 124.291 128.878 124.186 128.878C124.314 128.788 124.41 128.661 124.46 128.515C124.511 128.368 124.512 128.211 124.465 128.063C124.418 127.916 124.324 127.787 124.198 127.695C124.071 127.602 123.918 127.551 123.76 127.548C123.29 127.548 118.665 126.609 118.665 126.609L118.109 124.755C118.078 124.652 117.306 125.122 117.282 125.146C116.891 125.395 116.562 125.727 116.321 126.117C116.079 126.507 115.931 126.944 115.886 127.397C115.86 128.034 115.964 128.67 116.192 129.267C116.42 129.864 116.767 130.411 117.214 130.877C118.043 131.695 119.165 132.169 120.345 132.201C120.907 132.237 121.444 132.262 121.932 132.298C122.04 132.306 122.15 132.292 122.253 132.258C122.356 132.223 122.45 132.168 122.531 132.097C122.611 132.025 122.676 131.938 122.721 131.841C122.765 131.744 122.789 131.639 122.79 131.533H122.932C123.044 131.556 123.16 131.556 123.272 131.533H123.507C124.291 131.533 124.353 130.582 123.815 130.233C124.069 130.233 124.322 130.281 124.575 130.281C125.52 130.299 125.44 128.872 124.495 128.878Z" fill="#FFCEA9"/>
<path d="M139.575 95.8346C139.575 95.8346 137.21 95.7202 136.228 94.3717C136.407 92.0721 139.427 83.331 145.492 82.6809C143.836 83.8094 142.524 85.3527 141.694 87.1477C140.607 89.7785 139.575 95.8346 139.575 95.8346Z" fill="#ADB3BC"/>
<path d="M170.429 107.381C170.429 107.381 164.377 109.416 160.116 105.996C159.652 105.214 162.586 95.1603 162.586 95.1603C162.586 95.1603 165.124 90.0313 169.101 92.072C173.078 94.1128 170.429 107.381 170.429 107.381Z" fill="#ADB3BC"/>
</svg>
