<svg width="271" height="300" viewBox="0 0 271 300" fill="none" xmlns="http://www.w3.org/2000/svg">
<ellipse cx="135.154" cy="235.53" rx="135.154" ry="64.4699" fill="#DBEAFE"/>
<path d="M225.924 213.205L168.368 180.739C163.492 177.995 159.538 170.619 159.538 164.275V7.54635C159.538 1.20221 163.492 -1.71464 168.368 1.03553L225.924 33.4751C230.8 36.2252 234.754 43.6007 234.754 49.9448V206.689C234.754 213.033 230.8 215.955 225.924 213.205Z" fill="#B1B4C4"/>
<path d="M226.911 216.033L231.472 213.783L227.098 206.46L226.911 216.033Z" fill="#B1B4C4"/>
<path d="M158.642 2.59811L162.841 0.44693L161.993 6.48897L158.642 2.59811Z" fill="#B1B4C4"/>
<path d="M222.254 214.997L164.698 182.552C159.821 179.807 155.868 172.432 155.868 166.087V9.33811C155.868 2.99397 159.821 0.0771202 164.698 2.82208L222.254 35.2668C227.13 38.017 231.083 45.3872 231.083 51.7366V208.481C231.083 214.83 227.13 217.747 222.254 214.997Z" fill="#616E84"/>
<path d="M230.454 52.1377V208.866C230.454 215.221 226.506 218.132 221.629 215.387L199.056 202.663L192.04 198.72L164.084 182.953C159.208 180.203 155.26 172.833 155.26 166.483V9.7392C155.26 3.38985 159.208 0.478208 164.084 3.22317L221.645 35.6627C226.522 38.4181 230.454 45.7831 230.454 52.1377Z" fill="#20232D"/>
<path d="M226.319 50.523V203.189C226.319 207.028 223.561 208.595 220.146 206.668L202.177 196.548L200.577 195.652L200.043 195.345L196.154 193.157L184.897 186.818L180.228 184.188L178.35 183.146L165.594 175.958C162.185 174.036 159.421 169.359 159.421 165.504V12.8279C159.421 8.97873 162.185 7.42134 165.594 9.34333L188.066 22.0108V22.0733C188.066 25.0683 190.2 28.7091 192.867 30.204C195.535 31.6989 197.669 30.4853 197.669 27.4955C197.669 27.4955 197.669 27.4486 197.669 27.4278L220.146 40.1057C223.561 42.0172 226.319 46.6946 226.319 50.523Z" fill="white"/>
<path d="M194.162 28.6282C194.874 28.2269 194.873 26.9241 194.16 25.7184C193.447 24.5126 192.292 23.8604 191.58 24.2617C190.868 24.663 190.869 25.9658 191.582 27.1716C192.295 28.3774 193.45 29.0295 194.162 28.6282Z" fill="#2B303F"/>
<path opacity="0.1" d="M192.867 27.308C192.643 27.1665 192.457 26.9752 192.323 26.7498C192.19 26.5243 192.113 26.2711 192.099 26.011C192.099 25.537 192.44 25.3443 192.867 25.5839C193.091 25.7242 193.279 25.9145 193.413 26.139C193.547 26.3635 193.626 26.616 193.641 26.8756C193.641 27.3496 193.289 27.5424 192.867 27.308Z" fill="white"/>
<path d="M232.807 72.7588C232.337 73.0244 231.958 72.7588 231.958 72.1338V65.4511C231.967 65.1444 232.048 64.8438 232.195 64.5727C232.342 64.3016 232.551 64.0674 232.807 63.8885C233.276 63.6228 233.655 63.8885 233.655 64.5187V71.2014C233.646 71.5073 233.565 71.807 233.418 72.0772C233.271 72.3473 233.061 72.5806 232.807 72.7588Z" fill="#757B89"/>
<path d="M232.807 83.7126C232.337 83.973 231.958 83.7126 231.958 83.0824V76.3996C231.963 76.0886 232.042 75.783 232.189 75.5071C232.337 75.2313 232.548 74.9929 232.807 74.811C233.276 74.5506 233.655 74.811 233.655 75.4413V82.124C233.65 82.435 233.571 82.7406 233.424 83.0165C233.276 83.2923 233.065 83.5307 232.807 83.7126Z" fill="#757B89"/>
<path d="M215.515 193.657L170.246 168.134C167.899 166.811 165.978 163.254 165.978 160.196V78.1288C165.978 75.0661 167.888 73.6598 170.246 75.0036L215.515 100.526C217.868 101.854 219.783 105.407 219.783 108.469V190.558C219.783 193.574 217.852 194.98 215.515 193.657Z" fill="#E9EAF2"/>
<path d="M215.515 141.513L170.246 115.99C167.899 114.667 165.978 111.11 165.978 108.052V25.9845C165.978 22.9218 167.888 21.5155 170.246 22.8593L215.515 48.3817C217.868 49.7099 219.783 53.2622 219.783 56.3249V138.413C219.783 141.429 217.852 142.836 215.515 141.513Z" fill="#E9EAF2"/>
<path d="M208.063 129.453C215.082 125.496 215.082 112.666 208.062 100.796C201.042 88.9254 189.661 82.5101 182.642 86.4666C175.623 90.4231 175.623 103.253 182.643 115.123C189.663 126.994 201.044 133.409 208.063 129.453Z" fill="#CED0DB"/>
<path d="M213.151 63.7274L195.641 53.857V49.8568L213.151 59.7272V63.7274Z" fill="#CED0DB"/>
<path d="M209.112 68.6444L195.641 61.0554V57.0552L209.112 64.6494V68.6444Z" fill="#CED0DB"/>
<path d="M213.151 86.8174L173.462 64.4462V60.4511L213.151 82.8171V86.8174Z" fill="#CED0DB"/>
<path d="M203.687 142.013L173.159 124.804V120.803L203.687 138.013V142.013Z" fill="#CED0DB"/>
<path d="M212.709 154.295L173.02 131.924V127.924L212.709 150.295V154.295Z" fill="#CED0DB"/>
<path d="M203.554 156.332L173.02 139.122V135.122L203.554 152.331V156.332Z" fill="#CED0DB"/>
<path d="M212.709 168.692L173.02 146.321V142.32L212.709 164.692V168.692Z" fill="#CED0DB"/>
<path d="M212.357 182.885L172.668 160.514V156.519L212.357 178.885V182.885Z" fill="#CED0DB"/>
<path d="M203.554 170.728L173.02 153.519V149.519L203.554 166.728V170.728Z" fill="#CED0DB"/>
<path d="M186.247 52.8251C187.362 51.075 195.887 49.9239 198.688 56.9921C199.755 59.6641 199.59 66.4979 200.481 70.795C201.372 75.0921 203.463 77.5194 204.216 81.004C204.968 84.4886 203.741 90.3223 195.146 91.3536C186.551 92.3849 179.935 89.442 177.908 86.7647C175.88 84.0875 175.832 78.3996 177.945 75.3474C180.058 72.2951 181.653 69.8054 181.605 65.8311L186.247 52.8251Z" fill="#2B2A30"/>
<path d="M191.875 51.6115C191.875 51.6115 185.473 49.8041 181.567 53.1741C178.009 56.2681 178.308 60.4662 178.825 62.4612C179.343 64.4561 180.378 67.149 181.989 67.2896C183.6 67.4302 191.875 51.6115 191.875 51.6115Z" fill="#2B2A30"/>
<path d="M194.329 68.696C194.329 68.696 193.908 75.6808 194.036 76.1912C194.164 76.7017 196.848 77.2017 197.595 77.8111C198.342 78.4205 193.705 85.5043 191.347 86.5565C188.989 87.6086 181.68 84.9262 181.173 81.3478C180.709 78.082 183.264 75.5454 184.251 74.6599C184.922 74.5969 185.595 74.5795 186.268 74.6078L186.481 71.2222C189.683 70.2534 194.329 68.696 194.329 68.696Z" fill="#FFCEA9"/>
<path d="M177.033 81.8895C176.99 81.6968 175.966 82.2593 175.939 82.2749C175.912 82.2905 175.432 100.193 174.525 101.813C172.242 105.62 166.17 112.053 166.021 112.777C165.573 114.949 166.864 113.001 168.95 112.777C170.123 112.636 177.011 105.828 178.553 104.276L178.649 104.334C178.649 104.271 178.649 104.214 178.676 104.156L178.879 103.953C178.935 103.473 178.951 102.988 178.927 102.505C181.792 83.0406 178.27 81.7436 177.033 81.8895Z" fill="#FFCEA9"/>
<path d="M175.469 84.6396L175.106 93.2652L174.525 100.062C174.525 100.062 174.637 100.974 173.613 102.568C172.588 104.162 167.114 110.782 167.114 110.782L169.59 112.787L175.229 108.266L178.964 83.9104L177 81.5405L175.469 84.6396Z" fill="white"/>
<path d="M195.311 76.8735C197.317 77.1756 199.616 78.2225 199.931 79.2955C200.299 80.5508 201.094 86.4574 199.355 90.9525C197.616 95.4475 196.442 98.3071 195.444 100.24C195.444 100.24 186.748 103.886 179.738 99.6353C179.738 99.6353 179.257 94.8225 179.204 92.2442C172.732 86.7335 178.265 79.9362 183.744 74.6598C184.4 74.594 185.061 74.5853 185.718 74.6337C185.718 74.6337 180.831 80.2799 184.23 83.4885C191.534 81.3373 192.979 78.1288 195.311 76.8735Z" fill="#F4F4F4"/>
<path d="M180.965 60.0444C181.69 55.5597 185.009 52.1689 189.746 52.4397C191.653 52.5418 193.478 53.226 194.964 54.3956C196.45 55.5653 197.522 57.1613 198.028 58.9582C198.535 60.755 198.45 62.6618 197.787 64.4092C197.123 66.1565 195.914 67.6561 194.329 68.6959C194.164 69.3757 193.919 70.0346 193.598 70.6596C191.918 72.566 187.458 73.7848 185.985 73.7848C184.715 73.7848 183.616 72.6389 182.427 70.7117C179.94 66.7114 180.57 62.2632 180.965 60.0444Z" fill="#FFCEA9"/>
<path d="M191.214 52.5231C194.538 53.1585 197.275 54.0857 198.176 57.2578C198.795 59.4506 199.601 63.6384 198.832 65.3989L198.352 66.6698L194.33 68.696C194.33 68.696 192.452 67.1698 193.033 62.6904C193.015 62.0832 192.818 61.494 192.468 60.9924C192.226 60.5675 192.046 60.1116 191.934 59.6381C191.529 58.388 190.499 57.5547 189.325 56.8827C186.327 55.242 181.941 56.6588 181.322 57.2526C183.328 53.2002 187.351 51.7835 191.214 52.5231Z" fill="#2B2A30"/>
<path d="M203.01 123.538C202.476 129.205 199.243 153.29 199.243 153.29C200.511 157.343 201.182 161.552 201.238 165.79C201.206 169.296 200.267 175.244 199.206 180.755L197.344 193.855L192.899 191.344L193.076 181.578C192.846 178.307 192.515 173.478 192.302 170.39C191.955 165.369 191.032 157.368 190.765 155.399C190.499 153.43 189.848 149.93 189.533 146.024C189.218 142.117 187.714 122.298 187.714 122.298L187.506 126.012C187.506 126.012 187.308 132.044 186.439 139.471C185.569 146.899 185.233 150.211 185.233 150.211C185.233 150.211 186.775 152.972 186.972 155.009C187.132 156.618 189.01 169.327 187.884 175.796L186.236 187.578L180.901 184.589L180.212 176.177C179.3 169.874 177.374 156.509 177.075 154.769C176.691 152.482 176.371 151.357 175.923 144.169C175.475 136.981 175.64 121.371 176.382 115.709C177.123 110.047 179.263 101.823 179.263 101.823C181.282 102.749 183.468 103.28 185.697 103.386C189.432 103.573 195.434 102.464 195.434 102.464C196.481 104.25 197.626 105.98 198.864 107.646C200.545 109.902 203.778 114.865 203.01 123.538Z" fill="#FFCEA9"/>
<path d="M195.444 100.24L200.438 110.037C200.438 110.037 208.062 120.928 200.161 148.93L201.644 157.566C201.644 157.566 186.705 166.942 176.691 157.566C176.691 157.566 173.218 131.689 175.064 119.756C176.089 112.894 177.646 106.117 179.722 99.4843C179.722 99.4843 182.171 102.125 194.778 100.38" fill="#FFC618"/>
<path d="M183.766 74.6598C183.766 74.6598 176.371 75.8369 175.469 84.6396L177.161 82.9884C177.161 82.9884 181.306 76.8631 183.766 74.6598Z" fill="white"/>
<path d="M185.74 74.6338C183.83 78.233 178.804 84.1136 180.229 90.4786C182.117 98.9635 178.5 149.805 178.5 149.805C178.5 149.805 174.232 147.164 174.232 145.05C174.232 142.935 175.832 88.0566 175.832 85.4574C175.832 82.8583 180.506 78.2434 183.681 74.6391C184.52 74.3445 185.408 74.2015 186.3 74.2172C186.3 74.4099 186.3 74.4359 186.273 74.6338C186.113 74.6443 186.023 74.6338 185.74 74.6338Z" fill="white"/>
<path d="M152.784 121.215L169.857 111.527L182.117 118.439L165.039 128.127L152.784 121.215Z" fill="#ADB3BC"/>
<path d="M167.654 112.235C166.587 112.475 165.52 112.553 164.623 113.204C164.292 113.492 163.935 113.75 163.556 113.975C163.385 114.063 163.22 114.168 163.023 114.24C162.761 114.33 162.526 114.482 162.34 114.683C162.146 114.954 162.04 115.275 162.036 115.605C161.952 116.003 161.932 116.41 161.977 116.814C162.126 117.413 162.761 117.366 163.097 116.949C163.267 116.741 163.366 116.486 163.38 116.22C163.388 115.967 163.458 115.719 163.583 115.497C163.708 115.275 163.886 115.086 164.1 114.944L168.182 112.47C168.13 112.381 168.051 112.311 167.956 112.269C167.862 112.227 167.756 112.215 167.654 112.235Z" fill="#FFCEA9"/>
<path d="M200.828 90.14C200.828 90.14 200.689 105.094 201.249 109.933C201.809 114.772 208.878 128.95 202.652 148.185C201.735 149.227 200.892 151.337 193.049 152.222C188.37 152.222 186.673 151.524 186.673 151.524C186.673 151.524 188.482 119.267 185.857 90.9421C185.857 83.1291 192.74 84.0355 194.015 75.3787C200.091 78.1497 200.097 79.0247 200.097 79.0247L200.828 90.14Z" fill="white"/>
<path opacity="0.1" d="M197.744 78.858C194.399 79.2226 193.961 83.3635 193.961 83.3635L193.807 89.7024C193.807 89.7024 194.169 97.7863 195.13 100.25L180.618 109.985L183.782 113.584C183.782 113.584 199.115 106.672 200.321 105.578C201.527 104.485 200.321 91.8015 200.508 88.1503C201.313 81.254 201.11 78.4934 197.744 78.858Z" fill="black"/>
<path d="M200.145 82.3635C199.579 80.0977 197.76 80.827 196.197 79.4987C192.563 84.5147 194.975 98.0832 195.466 99.5312L181.53 108.204C181.306 108.35 180.826 108.636 180.597 108.777C179.332 109.521 176.899 110.813 175.416 110.98C174.018 111.136 173.282 113.063 171.799 113.225C171.686 113.229 171.576 113.265 171.484 113.329C171.391 113.393 171.32 113.483 171.28 113.586C171.24 113.69 171.231 113.803 171.256 113.911C171.281 114.019 171.338 114.117 171.42 114.194C172.018 114.756 173.613 114.293 174.701 113.048C174.698 113.079 174.698 113.11 174.701 113.141C174.697 113.388 174.783 113.628 174.943 113.819C175.103 114.01 175.328 114.139 175.576 114.183C175.577 114.273 175.602 114.362 175.651 114.438C175.728 114.597 175.844 114.734 175.99 114.837C176.135 114.94 176.305 115.005 176.483 115.027C176.557 115.26 176.713 115.459 176.922 115.592C177.132 115.724 177.382 115.78 177.63 115.751C177.948 115.733 178.247 115.599 178.468 115.376C179.656 114.93 180.706 114.19 181.514 113.23C182.232 112.509 182.987 111.824 183.776 111.178C187.559 109.589 198.902 104.86 199.408 104.188C200.145 103.193 200.95 85.5981 200.145 82.3635Z" fill="#FFCEA9"/>
<path d="M197.184 77.7642C193.839 78.1288 193.401 82.2697 193.401 82.2697L193.246 88.6034C193.246 88.6034 193.609 96.6924 194.564 99.1561L180.058 108.891L183.222 112.49C183.222 112.49 198.555 105.578 199.734 104.485C200.913 103.391 201.212 92.1192 201.415 88.4732C202.247 81.5873 200.534 77.3996 197.184 77.7642Z" fill="white"/>
<path opacity="0.4" d="M93.233 249.713C107.807 249.713 119.621 243.052 119.621 234.837C119.621 226.621 107.807 219.961 93.233 219.961C78.6594 219.961 66.8452 226.621 66.8452 234.837C66.8452 243.052 78.6594 249.713 93.233 249.713Z" fill="#D6D8E5"/>
<path d="M74.4318 124.538C74.1383 127.043 71.076 137.851 71.7322 141.555C72.3884 145.258 82.8507 151.451 82.8507 151.451L84.3019 145.112L78.5079 139.591L80.0711 129.096L74.4318 124.538Z" fill="#FFCEA9"/>
<path d="M82.5254 113.886C81.0316 113.256 78.2573 113.115 76.6994 115.605C75.1415 118.095 73.5623 126.627 73.4183 128.106C73.4183 128.106 75.579 131.018 78.8175 130.533L82.5254 113.886Z" fill="#FFC618"/>
<path d="M94.4709 234.389C96.748 235 99.1802 234.712 101.241 233.586C102.869 233.633 111.72 229.94 112.925 233.04C113.992 235.764 110.146 238.279 108.097 238.769C103.626 239.811 100.318 242.004 98.5204 242.373C97.1866 242.65 95.4526 242.832 94.3856 241.806C93.1105 240.576 93.2172 236.019 94.4709 234.389Z" fill="#50555C"/>
<path d="M98.5203 241.624C100.318 241.259 103.626 239.082 108.097 238.024C109.815 237.618 112.771 235.785 113.069 233.597C113.464 236.102 110.007 238.326 108.097 238.774C103.626 239.816 100.318 242.009 98.5203 242.379C97.1865 242.655 95.4526 242.837 94.3855 241.811C94.1102 241.513 93.9094 241.156 93.7986 240.769C95.3565 242.03 97.1865 241.9 98.5203 241.624Z" fill="#111111"/>
<path d="M80.1139 228.102C82.39 228.719 84.8235 228.432 86.8843 227.305C88.5168 227.352 97.3626 223.659 98.5683 226.784C99.6353 229.508 95.7887 232.024 93.74 232.514C89.2691 233.555 85.9613 235.748 84.1687 236.118C82.8295 236.394 81.0956 236.576 80.0339 235.545C78.7534 234.284 78.8655 229.727 80.1139 228.102Z" fill="#50555C"/>
<path d="M84.1688 235.331C85.9614 234.962 89.2692 232.79 93.7401 231.732C95.458 231.326 98.4137 229.487 98.7125 227.305C99.1126 229.81 95.6501 232.034 93.7401 232.482C89.2692 233.524 85.9614 235.717 84.1688 236.087C82.8296 236.363 81.0957 236.545 80.034 235.514C79.7547 235.218 79.5533 234.861 79.4471 234.472C80.9997 235.733 82.8296 235.607 84.1688 235.331Z" fill="#111111"/>
<path d="M79.9379 204.626C80.321 201.417 81.005 198.249 81.9813 195.162C81.9813 195.162 81.3731 186.99 81.069 179.25C80.7222 170.463 77.6011 162.728 80.0607 155.717L107.836 161.749C107.836 161.749 106.155 196.782 105.782 201.022C105.581 204.322 105.167 207.607 104.544 210.856C103.274 217.658 101.215 233.837 101.215 233.837C98.275 235.503 94.423 234.581 94.423 234.581C94.423 234.581 94.6364 214.122 94.8231 209.22C95.0525 203.236 95.2392 203.694 95.2392 203.694L94.3216 188.792L93.7241 181.375C93.7241 181.375 92.9558 186.818 92.4543 191.678C92.0168 195.918 90.9711 199.751 89.7867 207.637C88.773 214.481 87.1191 228.232 87.1191 228.232C84.1847 229.899 80.1834 228.519 80.1834 228.519C80.1834 228.519 79.143 210.564 79.9379 204.626Z" fill="#ADB3BC"/>
<path d="M83.9925 114.032C86.1266 114.136 87.6844 114.668 87.9512 114.032C88.1771 112.966 88.3374 111.888 88.4314 110.803C88.186 110.204 87.9779 109.563 87.9779 109.563C85.3103 107.964 84.4833 105.162 84.1312 101.901C83.539 96.3228 86.6227 91.4371 92.3367 90.8537C97.7092 90.3329 101.663 93.9789 102.714 99.0574C103.285 101.552 104.416 106.277 102.884 110.386C102.031 112.683 100.932 114.506 99.8273 114.86C98.7647 114.831 97.7047 114.74 96.6529 114.59C96.6529 114.59 96.3701 116.152 96.1727 117.131C95.9753 118.111 96.0553 118.652 98.0827 119.876C100.11 121.1 95.015 123.601 91.6805 123.356C88.346 123.111 84.6114 121.147 83.5817 119.043C82.4453 116.725 82.5413 113.965 83.9925 114.032Z" fill="#FFCEA9"/>
<path d="M87.0549 114.339C86.468 115.767 87.9565 117.512 91.9312 118.73C95.9059 119.949 96.2581 118.381 96.2581 118.381C96.2581 118.381 102.084 120.986 103.978 122.262C106.363 123.892 107.419 128.601 107.745 136.549C108.113 145.748 108.145 159.394 107.835 161.749C107.835 161.749 103.381 166.082 97.6985 165.624C92.0166 165.166 82.4026 160.243 80.0924 156.436C80.1565 148.373 81.1221 147.06 79.783 142.414C76.7206 131.778 75.1094 127.424 76.5819 120.355C77.809 114.527 79.5269 113.803 81.8851 113.86C83.6158 113.931 85.3415 114.091 87.0549 114.339Z" fill="#FFFAF3"/>
<path d="M116.708 144.154C112.029 145.305 110.93 142.425 110.306 140.039C108.817 134.263 108.017 129.049 106.907 125.773C105.6 121.908 104.24 121.288 102.308 120.538C100.046 119.652 98.1042 121.517 98.8564 126.434C99.7474 132.257 100.916 136.33 103.125 143.232C103.706 145.029 105.008 148.227 106.966 149.769C109.377 151.675 113.016 151.592 118.517 150.258C120.864 149.685 123.436 148.316 127.874 146.295C129.064 145.774 130.009 145.394 132.276 144.352C134.543 143.31 136.944 141.576 138.145 139.883C139.345 138.19 139.5 137.393 139.254 137.008C138.95 136.523 138.406 136.627 137.766 137.341C136.842 138.546 135.701 139.577 134.399 140.383C134.399 140.383 135.877 138.893 136.678 137.924C137.396 137.066 137.992 136.116 138.449 135.101C138.87 134.112 138.001 132.773 137.339 133.476C136.678 134.179 136.363 134.898 135.152 136.315C134.512 137.068 133.783 137.745 132.98 138.331C133.731 137.342 134.4 136.297 134.981 135.205C135.749 133.674 135.739 132.888 135.707 132.372C135.675 131.856 134.928 131.242 134.229 132.216C133.594 133.096 133.162 134.471 131.716 135.966C130.649 137.049 129.736 137.674 129.71 137.372C129.683 137.07 130.355 136.476 130.739 135.216C131.124 133.955 130.739 132.612 130.025 132.476C129.31 132.341 129.448 132.372 128.872 133.549C128.296 134.726 127.421 135.601 126.738 137.325C126.146 138.841 125.879 139.456 124.812 140.56C123.697 141.737 121.158 143.06 116.708 144.154Z" fill="#FFCEA9"/>
<path d="M100.58 119.746C103.706 119.298 105.915 120.673 107.291 125.293C108.668 129.913 109.639 133.71 109.639 133.71C108.401 135.451 106.529 136.664 104.405 137.101C100.67 137.987 99.3206 136.242 99.3206 136.242C99.3206 136.242 98.2535 131.398 97.6346 128.101C97.0158 124.804 96.7117 120.319 100.58 119.746Z" fill="#FFC618"/>
<path d="M102.532 98.3437C102.532 98.3437 107.473 91.0151 96.7758 89.5202C89.0611 88.4473 84.0994 93.2861 83.5285 98.5364C82.995 103.552 86.1481 108.761 88.4315 110.829C89.5466 111.22 91.9474 111.443 95.1005 110.042C95.2267 108.676 95.2748 107.304 95.2446 105.933C95.2446 105.933 91.4833 98.2083 102.532 98.3437Z" fill="#111111"/>
<path opacity="0.4" d="M185.345 260.432C192.402 260.432 198.123 257.207 198.123 253.228C198.123 249.25 192.402 246.025 185.345 246.025C178.288 246.025 172.567 249.25 172.567 253.228C172.567 257.207 178.288 260.432 185.345 260.432Z" fill="#D6D8E5"/>
<path d="M187.244 259.968C194.301 259.968 200.022 256.743 200.022 252.765C200.022 248.786 194.301 245.561 187.244 245.561C180.187 245.561 174.466 248.786 174.466 252.765C174.466 256.743 180.187 259.968 187.244 259.968Z" fill="#D9DCE8"/>
<path d="M174.466 252.65V249.035L178.526 250.364L174.466 252.65Z" fill="#D9DCE8"/>
<path d="M200.011 249.291V252.536L195.332 251.64L200.011 249.291Z" fill="#D9DCE8"/>
<path d="M187.244 256.265C194.301 256.265 200.022 253.04 200.022 249.061C200.022 245.083 194.301 241.858 187.244 241.858C180.187 241.858 174.466 245.083 174.466 249.061C174.466 253.04 180.187 256.265 187.244 256.265Z" fill="#EFF1F9"/>
<path d="M178.868 254.499L177.481 253.718L195.497 243.566L196.879 244.348L178.868 254.499Z" fill="#D3D6E2"/>
<path d="M177.481 253.718V257.416L178.74 258.145L178.916 258.229V254.499L177.481 253.718Z" fill="#C5C8D3"/>
<path opacity="0.4" d="M15.4192 247.384C22.4761 247.384 28.1969 244.159 28.1969 240.181C28.1969 236.202 22.4761 232.977 15.4192 232.977C8.36222 232.977 2.64142 236.202 2.64142 240.181C2.64142 244.159 8.36222 247.384 15.4192 247.384Z" fill="#D6D8E5"/>
<path d="M17.3183 246.921C24.3753 246.921 30.0961 243.696 30.0961 239.717C30.0961 235.739 24.3753 232.514 17.3183 232.514C10.2614 232.514 4.54059 235.739 4.54059 239.717C4.54059 243.696 10.2614 246.921 17.3183 246.921Z" fill="#D9DCE8"/>
<path d="M4.54059 239.597V235.977L8.60066 237.311L4.54059 239.597Z" fill="#D9DCE8"/>
<path d="M30.0855 236.243V239.488L25.4066 238.587L30.0855 236.243Z" fill="#D9DCE8"/>
<path d="M17.3183 243.217C24.3753 243.217 30.0961 239.992 30.0961 236.014C30.0961 232.035 24.3753 228.81 17.3183 228.81C10.2614 228.81 4.54059 232.035 4.54059 236.014C4.54059 239.992 10.2614 243.217 17.3183 243.217Z" fill="#EFF1F9"/>
<path d="M8.94224 241.452L7.56042 240.67L25.572 230.519L26.9591 231.3L8.94224 241.452Z" fill="#D3D6E2"/>
<path d="M7.56042 240.67V244.368L8.81419 245.092L8.99025 245.181V241.452L7.56042 240.67Z" fill="#C5C8D3"/>
<path opacity="0.4" d="M252.787 240.196C259.844 240.196 265.565 236.971 265.565 232.993C265.565 229.014 259.844 225.789 252.787 225.789C245.73 225.789 240.009 229.014 240.009 232.993C240.009 236.971 245.73 240.196 252.787 240.196Z" fill="#D6D8E5"/>
<path d="M132.523 275.99C139.58 275.99 145.301 272.765 145.301 268.787C145.301 264.808 139.58 261.583 132.523 261.583C125.466 261.583 119.745 264.808 119.745 268.787C119.745 272.765 125.466 275.99 132.523 275.99Z" fill="#D9DCE8"/>
<path d="M241.908 232.415C241.908 232.383 241.908 228.795 241.908 228.795L245.974 230.128L241.908 232.415Z" fill="#D9DCE8"/>
<path d="M267.453 229.055V232.3L262.774 231.399L267.453 229.055Z" fill="#D9DCE8"/>
<path d="M132.523 272.287C139.58 272.287 145.301 269.062 145.301 265.083C145.301 261.105 139.58 257.88 132.523 257.88C125.466 257.88 119.745 261.105 119.745 265.083C119.745 269.062 125.466 272.287 132.523 272.287Z" fill="#EFF1F9"/>
<path d="M124.152 270.521L122.765 269.74L140.777 259.588L142.164 260.369L124.152 270.521Z" fill="#D3D6E2"/>
<path d="M122.765 269.74V273.438L124.024 274.162L124.2 274.25V270.521L122.765 269.74Z" fill="#C5C8D3"/>
<path opacity="0.4" d="M172.971 233.811L145.279 218.037L149.284 215.759L176.976 231.533L172.971 233.811Z" fill="#D6D8E5"/>
<path d="M44.0239 161.648L56.3848 168.481L62.514 157.063L50.9301 150.43L44.0239 161.648Z" fill="#D1D5DB"/>
<path d="M160.247 223.865L172.02 230.373L177.857 219.498L166.825 213.181L160.247 223.865Z" fill="#50555C"/>
<path d="M32.5778 154.99L43.3499 160.745L51.0678 149.998L38.9697 143.553L32.5778 154.99Z" fill="#FCA70D"/>
<path d="M148.801 217.741L159.06 223.496L166.411 212.749L154.889 206.304L148.801 217.741Z" fill="#FCA70D"/>
<path d="M36.5399 156.447C39.7007 156.447 42.263 153.368 42.263 149.57C42.263 145.772 39.7007 142.693 36.5399 142.693C33.3791 142.693 30.8168 145.772 30.8168 149.57C30.8168 153.368 33.3791 156.447 36.5399 156.447Z" fill="#FCA70D"/>
<path d="M151.442 218.338C154.846 218.338 157.606 215.259 157.606 211.461C157.606 207.663 154.846 204.585 151.442 204.585C148.038 204.585 145.279 207.663 145.279 211.461C145.279 215.259 148.038 218.338 151.442 218.338Z" fill="#FCA70D"/>
<path d="M50.7838 157.601C52.6181 154.499 52.6176 151.147 50.7829 150.113C48.9482 149.078 45.9739 150.754 44.1397 153.856C42.3055 156.958 42.3059 160.31 44.1406 161.344C45.9753 162.379 48.9496 160.703 50.7838 157.601Z" fill="#D1D5DB"/>
<path d="M166.556 220.105C168.391 217.003 168.39 213.651 166.556 212.616C164.721 211.582 161.747 213.258 159.912 216.36C158.078 219.462 158.079 222.814 159.913 223.848C161.748 224.883 164.722 223.207 166.556 220.105Z" fill="#50555C"/>
<path d="M59.4324 169.341C63.0795 169.341 66.036 166.455 66.036 162.894C66.036 159.333 63.0795 156.447 59.4324 156.447C55.7853 156.447 52.8288 159.333 52.8288 162.894C52.8288 166.455 55.7853 169.341 59.4324 169.341Z" fill="#D1D5DB"/>
<path d="M174.775 231.232C178.422 231.232 181.379 228.346 181.379 224.785C181.379 221.225 178.422 218.338 174.775 218.338C171.128 218.338 168.172 221.225 168.172 224.785C168.172 228.346 171.128 231.232 174.775 231.232Z" fill="#50555C"/>
<path opacity="0.4" d="M49.8837 224.355C54.5788 224.355 58.3849 222.216 58.3849 219.578C58.3849 216.94 54.5788 214.801 49.8837 214.801C45.1886 214.801 41.3825 216.94 41.3825 219.578C41.3825 222.216 45.1886 224.355 49.8837 224.355Z" fill="#D6D8E5"/>
<path d="M58.3848 202.197H42.7993C42.7993 202.197 42.8526 215.585 42.8124 218.125C42.8021 218.239 42.799 218.354 42.8034 218.468C42.8034 218.492 42.8034 218.511 42.7993 218.522H42.8059C42.8673 219.639 43.6249 220.745 45.0819 221.597C48.1244 223.377 53.0613 223.377 56.0998 221.601C57.5568 220.749 58.3111 219.643 58.3758 218.526H58.3848V202.197Z" fill="#ADB3BC"/>
<path d="M50.5921 206.67C54.8959 206.67 58.3848 204.622 58.3848 202.096C58.3848 199.57 54.8959 197.522 50.5921 197.522C46.2882 197.522 42.7993 199.57 42.7993 202.096C42.7993 204.622 46.2882 206.67 50.5921 206.67Z" fill="#8C50FF"/>
<path d="M58.7907 202.853C58.7085 203.07 58.6044 203.278 58.48 203.473C58.2314 203.86 57.9266 204.206 57.5759 204.502C57.4724 204.594 57.363 204.682 57.2472 204.769C57.0166 204.943 56.7756 205.102 56.5255 205.246C56.4713 205.278 56.4179 205.308 56.3611 205.338C56.2502 205.4 56.1351 205.46 56.0176 205.517C55.7373 205.655 55.4423 205.783 55.1406 205.896C55.028 205.939 54.9146 205.979 54.7987 206.018C54.5086 206.117 54.2103 206.203 53.9045 206.279C53.8018 206.305 53.6982 206.33 53.5938 206.352C53.2947 206.42 52.9917 206.475 52.6848 206.518C52.5804 206.534 52.4769 206.548 52.3725 206.561C52.0717 206.598 51.7703 206.625 51.4684 206.644C51.3648 206.649 51.2613 206.655 51.1561 206.658C50.8536 206.671 50.5504 206.672 50.252 206.666C50.1476 206.666 50.0441 206.66 49.9397 206.655C49.6356 206.641 49.3323 206.619 49.0307 206.585C48.9263 206.573 48.8219 206.562 48.7183 206.547C48.4126 206.507 48.1093 206.456 47.8101 206.395C47.7058 206.375 47.6014 206.352 47.4987 206.328C47.1891 206.257 46.8863 206.175 46.5905 206.08C46.4861 206.047 46.3809 206.013 46.2781 205.977C45.965 205.868 45.6609 205.746 45.3691 205.61C45.2639 205.562 45.1595 205.512 45.0584 205.459C44.9198 205.389 44.7845 205.315 44.6524 205.239C44.4749 205.135 44.3081 205.029 44.1494 204.919C44.0409 204.845 43.9366 204.768 43.8371 204.69C43.4983 204.428 43.1929 204.126 42.9281 203.789C42.8141 203.642 42.7105 203.488 42.6182 203.326C41.6517 201.63 42.3297 199.688 44.6524 198.338C47.9318 196.437 53.2503 196.437 56.5313 198.338C57.4543 198.874 58.1159 199.503 58.5203 200.173C58.6277 200.351 58.7191 200.537 58.7931 200.731C59.0593 201.413 59.0585 202.172 58.7907 202.853Z" fill="#EF990F"/>
<path d="M42.1922 201.588C42.1922 201.548 42.1922 199.351 42.1922 199.351L44.8235 200.469L42.1922 201.588Z" fill="#EF990F"/>
<path d="M58.992 199.351L58.9896 201.604L57.4831 202.807L56.5631 200.742L58.992 199.351Z" fill="#EF990F"/>
<path d="M43.0017 200.571V203.824C42.9273 203.671 42.8596 203.51 42.7993 203.342V200.571H43.0017Z" fill="#DD8910"/>
<path d="M44.2162 201.384V204.637C44.1459 204.564 44.0782 204.488 44.0138 204.41V201.384H44.2162Z" fill="#DD8910"/>
<path d="M45.4307 202.604V205.45C45.3621 205.406 45.2941 205.36 45.2283 205.313V202.604H45.4307Z" fill="#DD8910"/>
<path d="M46.6451 202.807V205.857C46.5098 205.825 46.3735 205.792 46.2403 205.759V202.811L46.6451 202.807Z" fill="#DD8910"/>
<path d="M47.8596 203.214V206.06C47.7239 206.041 47.5883 206.02 47.4548 205.999V203.214H47.8596Z" fill="#DD8910"/>
<path d="M48.8717 203.417V206.67C48.804 206.657 48.7364 206.644 48.6693 206.628V203.417H48.8717Z" fill="#DD8910"/>
<path d="M50.0862 203.417V206.67C50.0186 206.67 49.9514 206.664 49.8838 206.658V203.417H50.0862Z" fill="#DD8910"/>
<path d="M51.7053 203.417V206.655C51.504 206.661 51.3026 206.667 51.0981 206.67V203.42L51.7053 203.417Z" fill="#DD8910"/>
<path d="M52.5151 203.417V206.424C52.3798 206.439 52.2456 206.454 52.1103 206.466V203.417H52.5151Z" fill="#DD8910"/>
<path d="M53.932 203.214V205.994C53.865 206.018 53.7976 206.04 53.7296 206.06V203.214H53.932Z" fill="#DD8910"/>
<path d="M55.1463 202.604V205.736C55.0796 205.778 55.0125 205.817 54.9438 205.856V202.604H55.1463Z" fill="#DD8910"/>
<path d="M56.3608 201.994V205.272C56.2301 205.334 56.0945 205.393 55.956 205.45V201.994H56.3608Z" fill="#DD8910"/>
<path d="M57.5752 200.978V204.357C57.4477 204.453 57.313 204.546 57.1703 204.637V200.978H57.5752Z" fill="#DD8910"/>
<path d="M58.5873 199.961V202.766C58.5338 202.994 58.466 203.212 58.3849 203.417V199.961H58.5873Z" fill="#DD8910"/>
<path d="M50.5922 204.027C55.2314 204.027 58.9922 201.843 58.9922 199.148C58.9922 196.454 55.2314 194.269 50.5922 194.269C45.953 194.269 42.1922 196.454 42.1922 199.148C42.1922 201.843 45.953 204.027 50.5922 204.027Z" fill="#FCA70D"/>
<path d="M56.187 207.975C53.0972 209.763 48.0879 209.763 44.9981 207.975L44.8534 207.892L44.8235 207.91V214.169C44.88 214.204 44.9383 214.239 44.9981 214.273C48.0879 216.061 53.0972 216.061 56.187 214.273C56.2469 214.239 56.3034 214.203 56.3608 214.167V207.908L56.33 207.889C56.2835 207.919 56.236 207.947 56.187 207.975Z" fill="#ECE8F9"/>
<path d="M51.9077 210.649C49.7416 210.822 47.4528 210.581 45.6331 209.922V210.564C47.4528 211.222 49.7442 211.464 51.9077 211.291V210.649Z" fill="#111111"/>
<path d="M51.9077 212.076C49.7416 212.298 47.4528 211.99 45.6331 211.142V211.967C47.4512 212.813 49.7416 213.124 51.9077 212.902V212.076Z" fill="#111111"/>
<path d="M53.9318 210.114V212.565C54.1093 212.507 54.3318 212.434 54.5391 212.364V209.922H54.5306C54.3417 209.997 54.1008 210.068 53.9318 210.114Z" fill="#111111"/>
<path d="M55.1464 210.532C54.4939 210.814 53.8157 211.025 53.1223 211.162V211.955C53.8157 211.818 54.4939 211.607 55.1464 211.325V210.532Z" fill="#111111"/>
<path opacity="0.4" d="M222.002 263.037C226.932 263.037 230.929 260.96 230.929 258.397C230.929 255.834 226.932 253.756 222.002 253.756C217.072 253.756 213.076 255.834 213.076 258.397C213.076 260.96 217.072 263.037 222.002 263.037Z" fill="#D6D8E5"/>
<path d="M230.928 241.512H214.564C214.564 241.512 214.62 254.517 214.577 256.985C214.567 257.096 214.563 257.207 214.568 257.318C214.568 257.342 214.568 257.36 214.564 257.371H214.571C214.635 258.456 215.431 259.53 216.96 260.358C220.155 262.087 225.339 262.087 228.529 260.362C230.059 259.534 230.851 258.46 230.919 257.375H230.928V241.512Z" fill="#37B9C5"/>
<path d="M222.746 245.857C227.265 245.857 230.928 243.868 230.928 241.414C230.928 238.96 227.265 236.971 222.746 236.971C218.227 236.971 214.564 238.96 214.564 241.414C214.564 243.868 218.227 245.857 222.746 245.857Z" fill="#8C50FF"/>
<path d="M231.355 242.149C231.268 242.36 231.159 242.562 231.028 242.752C230.767 243.127 230.447 243.464 230.079 243.751C229.97 243.84 229.856 243.926 229.734 244.011C229.492 244.179 229.239 244.334 228.976 244.474C228.919 244.505 228.863 244.534 228.804 244.563C228.687 244.623 228.566 244.682 228.443 244.737C228.149 244.872 227.839 244.995 227.522 245.105C227.404 245.147 227.285 245.186 227.163 245.224C226.858 245.32 226.545 245.403 226.224 245.477C226.116 245.503 226.008 245.527 225.898 245.549C225.584 245.614 225.266 245.668 224.943 245.709C224.834 245.725 224.725 245.739 224.616 245.751C224.3 245.787 223.983 245.814 223.666 245.832C223.557 245.837 223.449 245.843 223.338 245.845C223.021 245.858 222.702 245.86 222.389 245.853C222.279 245.853 222.171 245.848 222.061 245.843C221.742 245.829 221.423 245.807 221.107 245.774C220.997 245.763 220.887 245.752 220.779 245.738C220.458 245.699 220.139 245.649 219.825 245.591C219.715 245.57 219.606 245.548 219.498 245.525C219.173 245.456 218.855 245.376 218.544 245.285C218.435 245.252 218.324 245.219 218.216 245.184C217.888 245.078 217.568 244.959 217.262 244.827C217.152 244.781 217.042 244.732 216.936 244.681C216.79 244.613 216.648 244.541 216.509 244.467C216.323 244.366 216.148 244.264 215.981 244.156C215.867 244.084 215.758 244.01 215.653 243.933C215.298 243.68 214.977 243.386 214.699 243.059C214.579 242.916 214.47 242.766 214.374 242.609C213.359 240.961 214.071 239.075 216.509 237.764C219.953 235.916 225.537 235.916 228.982 237.764C229.951 238.284 230.646 238.895 231.071 239.546C231.184 239.718 231.279 239.9 231.357 240.088C231.637 240.751 231.636 241.487 231.355 242.149Z" fill="#EF990F"/>
<path d="M213.926 240.92C213.926 240.882 213.926 238.748 213.926 238.748L216.689 239.834L213.926 240.92Z" fill="#EF990F"/>
<path d="M231.566 238.748L231.563 240.936L229.982 242.105L229.016 240.098L231.566 238.748Z" fill="#EF990F"/>
<path d="M214.776 239.933V243.092C214.698 242.944 214.627 242.788 214.564 242.624V239.933H214.776Z" fill="#DD8910"/>
<path d="M216.051 240.723V243.882C215.978 243.811 215.907 243.738 215.839 243.662V240.723H216.051Z" fill="#DD8910"/>
<path d="M217.327 241.907V244.672C217.255 244.63 217.183 244.585 217.114 244.539V241.907H217.327Z" fill="#DD8910"/>
<path d="M218.602 242.105V245.067C218.46 245.037 218.317 245.005 218.177 244.972V242.109L218.602 242.105Z" fill="#DD8910"/>
<path d="M219.877 242.5V245.264C219.735 245.246 219.592 245.226 219.452 245.205V242.5H219.877Z" fill="#DD8910"/>
<path d="M220.94 242.697V245.857C220.869 245.845 220.798 245.832 220.727 245.817V242.697H220.94Z" fill="#DD8910"/>
<path d="M222.215 242.697V245.857C222.144 245.857 222.073 245.851 222.002 245.846V242.697H222.215Z" fill="#DD8910"/>
<path d="M223.915 242.697V245.842C223.704 245.848 223.492 245.854 223.277 245.857V242.7L223.915 242.697Z" fill="#DD8910"/>
<path d="M224.765 242.697V245.618C224.623 245.633 224.482 245.647 224.34 245.659V242.697H224.765Z" fill="#DD8910"/>
<path d="M226.253 242.5V245.201C226.183 245.224 226.112 245.245 226.04 245.264V242.5H226.253Z" fill="#DD8910"/>
<path d="M227.528 241.907V244.95C227.458 244.991 227.388 245.029 227.315 245.067V241.907H227.528Z" fill="#DD8910"/>
<path d="M228.803 241.315V244.5C228.666 244.559 228.524 244.617 228.378 244.672V241.315H228.803Z" fill="#DD8910"/>
<path d="M230.078 240.328V243.611C229.944 243.704 229.803 243.794 229.653 243.882V240.328H230.078Z" fill="#DD8910"/>
<path d="M231.141 239.34V242.065C231.085 242.286 231.014 242.498 230.929 242.697V239.34H231.141Z" fill="#DD8910"/>
<path d="M222.746 243.29C227.617 243.29 231.566 241.168 231.566 238.55C231.566 235.933 227.617 233.811 222.746 233.811C217.875 233.811 213.926 235.933 213.926 238.55C213.926 241.168 217.875 243.29 222.746 243.29Z" fill="#FCA70D"/>
<path d="M228.621 247.125C225.377 248.861 220.117 248.861 216.872 247.125L216.721 247.044L216.689 247.062V253.142C216.748 253.176 216.81 253.21 216.872 253.243C220.117 254.98 225.377 254.98 228.621 253.243C228.684 253.21 228.743 253.175 228.803 253.14V247.06L228.771 247.042C228.722 247.071 228.672 247.098 228.621 247.125Z" fill="#ECE8F9"/>
<path d="M224.128 249.722C221.853 249.891 219.45 249.657 217.539 249.017V249.64C219.45 250.279 221.856 250.514 224.128 250.347V249.722Z" fill="#FFC618"/>
<path d="M224.128 251.109C221.853 251.325 219.45 251.025 217.539 250.201V251.003C219.448 251.825 221.853 252.127 224.128 251.911V251.109Z" fill="#FFC618"/>
<path d="M226.253 249.203V251.584C226.439 251.528 226.673 251.457 226.89 251.388V249.017H226.882C226.683 249.089 226.43 249.158 226.253 249.203Z" fill="#FFC618"/>
<path d="M227.528 249.609C226.843 249.883 226.131 250.088 225.403 250.221V250.991C226.131 250.858 226.843 250.653 227.528 250.379V249.609Z" fill="#FFC618"/>
<path d="M115.672 45.6283L85.0623 27.9277C84.7682 27.7247 84.4322 27.5907 84.0793 27.5356C83.7264 27.4805 83.3656 27.5057 83.0238 27.6095C82.8931 27.6636 82.7702 27.7349 82.6584 27.8216L79.2432 29.7783L81.8906 32.891V45.6707C81.9501 46.7761 82.2687 47.8518 82.8207 48.8109C83.3726 49.7699 84.1424 50.5853 85.0676 51.1909L94.5985 57.1883L97.1878 63.1327L94.4609 67.762L98.2574 65.5879L101.863 61.3934L113.369 67.6348L113.989 71.3467L117.865 69.1302L117.971 69.0665H118.008C118.303 68.8275 118.536 68.519 118.683 68.1683C118.831 67.8176 118.89 67.4358 118.855 67.0568V51.1485C118.795 50.0427 118.475 48.9666 117.922 48.0075C117.37 47.0484 116.599 46.2333 115.672 45.6283Z" fill="#582FFF"/>
<path d="M112.094 47.9696L80.7367 30.5169C78.9359 29.5127 77.4822 30.3234 77.4822 32.3265V48.0167C77.5431 49.1069 77.8695 50.1679 78.4349 51.1138C79.0003 52.0597 79.7889 52.8639 80.7367 53.4612L90.5002 59.3816L94.2482 67.6608L97.9421 63.5238L112.088 70.9191C113.889 71.9181 115.343 71.1074 115.343 69.1043V53.4141C115.283 52.3244 114.957 51.2636 114.392 50.3178C113.828 49.3719 113.041 48.5675 112.094 47.9696Z" fill="#0165FC"/>
</svg>
